<?xml version="1.0" encoding="UTF-8" standalone="no"?>
<!DOCTYPE svg PUBLIC "-//W3C//DTD SVG 1.1//EN"
 "http://www.w3.org/Graphics/SVG/1.1/DTD/svg11.dtd">
<!-- Generated by graphviz version 8.0.5 (20230430.1635)
 -->
<!-- Title: nfa Pages: 1 -->
<svg width="672pt" height="2527pt"
 viewBox="0.00 0.00 671.75 2526.88" xmlns="http://www.w3.org/2000/svg" xmlns:xlink="http://www.w3.org/1999/xlink">
<g id="graph0" class="graph" transform="scale(1 1) rotate(0) translate(4 2522.88)">
<title>nfa</title>
<polygon fill="white" stroke="none" points="-4,4 -4,-2522.88 667.75,-2522.88 667.75,4 -4,4"/>
<!-- _0 -->
<g id="node1" class="node">
<title>_0</title>
<polygon fill="none" stroke="black" points="90,-1312.92 90,-1327.84 74.18,-1338.38 51.82,-1338.38 36,-1327.84 36,-1312.92 51.82,-1302.38 74.18,-1302.38 90,-1312.92"/>
<text text-anchor="middle" x="63" y="-1315.33" font-family="Times,serif" font-size="14.00">0</text>
</g>
<!-- _0&#45;&gt;_0 -->
<g id="edge54" class="edge">
<title>_0&#45;&gt;_0</title>
<path fill="none" stroke="black" d="M61.55,-1338.53C61.33,-1347.92 61.81,-1356.38 63,-1356.38 63.69,-1356.38 64.14,-1353.55 64.35,-1349.35"/>
<polygon fill="black" stroke="black" points="67.86,-1349.56 64.45,-1339.53 60.86,-1349.5 67.86,-1349.56"/>
<text text-anchor="middle" x="63" y="-1359.58" font-family="Times,serif" font-size="14.00">&#45;&#45;silent</text>
</g>
<!-- _0&#45;&gt;_0 -->
<g id="edge56" class="edge">
<title>_0&#45;&gt;_0</title>
<path fill="none" stroke="black" d="M60.57,-1338.64C59.32,-1355.78 60.12,-1374.38 63,-1374.38 65.27,-1374.38 66.25,-1362.8 65.95,-1349.49"/>
<polygon fill="black" stroke="black" points="69.4,-1349.46 65.43,-1339.64 62.41,-1349.79 69.4,-1349.46"/>
<text text-anchor="middle" x="63" y="-1377.58" font-family="Times,serif" font-size="14.00">&#45;&#45;line&#45;number</text>
</g>
<!-- _0&#45;&gt;_0 -->
<g id="edge57" class="edge">
<title>_0&#45;&gt;_0</title>
<path fill="none" stroke="black" d="M59.92,-1338.82C57.29,-1363.08 58.31,-1392.38 63,-1392.38 67.01,-1392.38 68.34,-1370.94 66.99,-1349.55"/>
<polygon fill="black" stroke="black" points="70.41,-1349.49 66.08,-1339.82 63.44,-1350.08 70.41,-1349.49"/>
<text text-anchor="middle" x="63" y="-1395.58" font-family="Times,serif" font-size="14.00">&#45;&#45;perl&#45;regexp</text>
</g>
<!-- _0&#45;&gt;_0 -->
<g id="edge58" class="edge">
<title>_0&#45;&gt;_0</title>
<path fill="none" stroke="black" d="M59.52,-1338.49C55.25,-1369.62 56.41,-1410.38 63,-1410.38 68.85,-1410.38 70.42,-1378.33 67.72,-1349.37"/>
<polygon fill="black" stroke="black" points="71.09,-1349.03 66.48,-1339.49 64.14,-1349.83 71.09,-1349.03"/>
<text text-anchor="middle" x="63" y="-1413.58" font-family="Times,serif" font-size="14.00">&#45;&#45;binary</text>
</g>
<!-- _0&#45;&gt;_0 -->
<g id="edge60" class="edge">
<title>_0&#45;&gt;_0</title>
<path fill="none" stroke="black" d="M59.17,-1338.7C53.23,-1376.41 54.5,-1428.38 63,-1428.38 70.73,-1428.38 72.49,-1385.33 68.26,-1349.16"/>
<polygon fill="black" stroke="black" points="71.65,-1349.13 66.83,-1339.7 64.72,-1350.08 71.65,-1349.13"/>
<text text-anchor="middle" x="63" y="-1431.58" font-family="Times,serif" font-size="14.00">&#45;&#45;help</text>
</g>
<!-- _0&#45;&gt;_0 -->
<g id="edge61" class="edge">
<title>_0&#45;&gt;_0</title>
<path fill="none" stroke="black" d="M58.91,-1338.74C51.21,-1382.93 52.57,-1446.38 63,-1446.38 72.61,-1446.38 74.53,-1392.45 68.73,-1349.41"/>
<polygon fill="black" stroke="black" points="72.07,-1349.1 67.09,-1339.74 65.15,-1350.16 72.07,-1349.1"/>
<text text-anchor="middle" x="63" y="-1449.58" font-family="Times,serif" font-size="14.00">&#45;&#45;basic&#45;regexp</text>
</g>
<!-- _0&#45;&gt;_0 -->
<g id="edge62" class="edge">
<title>_0&#45;&gt;_0</title>
<path fill="none" stroke="black" d="M58.72,-1338.67C49.19,-1389.23 50.61,-1464.38 63,-1464.38 74.54,-1464.38 76.57,-1399.15 69.08,-1349.35"/>
<polygon fill="black" stroke="black" points="72.4,-1348.94 67.28,-1339.67 65.49,-1350.11 72.4,-1348.94"/>
<text text-anchor="middle" x="63" y="-1467.58" font-family="Times,serif" font-size="14.00">&#45;&#45;null</text>
</g>
<!-- _0&#45;&gt;_0 -->
<g id="edge64" class="edge">
<title>_0&#45;&gt;_0</title>
<path fill="none" stroke="black" d="M58.55,-1338.71C47.17,-1395.58 48.66,-1482.38 63,-1482.38 76.48,-1482.38 78.6,-1405.78 69.38,-1349.34"/>
<polygon fill="black" stroke="black" points="72.68,-1348.92 67.45,-1339.71 65.79,-1350.17 72.68,-1348.92"/>
<text text-anchor="middle" x="63" y="-1485.58" font-family="Times,serif" font-size="14.00">&#45;&#45;text</text>
</g>
<!-- _0&#45;&gt;_0 -->
<g id="edge68" class="edge">
<title>_0&#45;&gt;_0</title>
<path fill="none" stroke="black" d="M58.41,-1338.69C45.16,-1401.83 46.69,-1500.38 63,-1500.38 78.42,-1500.38 80.63,-1412.31 69.63,-1349.34"/>
<polygon fill="black" stroke="black" points="72.91,-1348.85 67.59,-1339.69 66.03,-1350.17 72.91,-1348.85"/>
<text text-anchor="middle" x="63" y="-1503.58" font-family="Times,serif" font-size="14.00">&#45;&#45;invert&#45;match</text>
</g>
<!-- _0&#45;&gt;_0 -->
<g id="edge69" class="edge">
<title>_0&#45;&gt;_0</title>
<path fill="none" stroke="black" d="M58.29,-1338.73C43.15,-1408.09 44.72,-1518.38 63,-1518.38 80.39,-1518.38 82.66,-1418.6 69.81,-1349.17"/>
<polygon fill="black" stroke="black" points="73.12,-1348.85 67.71,-1339.73 66.25,-1350.23 73.12,-1348.85"/>
<text text-anchor="middle" x="63" y="-1521.58" font-family="Times,serif" font-size="14.00">&#45;&#45;no&#45;messages</text>
</g>
<!-- _0&#45;&gt;_0 -->
<g id="edge70" class="edge">
<title>_0&#45;&gt;_0</title>
<path fill="none" stroke="black" d="M58.25,-1338.47C41.13,-1414 42.72,-1536.38 63,-1536.38 82.37,-1536.38 84.69,-1424.75 69.95,-1348.92"/>
<polygon fill="black" stroke="black" points="73.23,-1348.54 67.75,-1339.47 66.38,-1349.98 73.23,-1348.54"/>
<text text-anchor="middle" x="63" y="-1539.58" font-family="Times,serif" font-size="14.00">&#45;&#45;files&#45;without&#45;match</text>
</g>
<!-- _0&#45;&gt;_0 -->
<g id="edge71" class="edge">
<title>_0&#45;&gt;_0</title>
<path fill="none" stroke="black" d="M58.11,-1338.68C39.13,-1420.4 40.76,-1554.38 63,-1554.38 84.31,-1554.38 86.7,-1431.41 70.17,-1349.24"/>
<polygon fill="black" stroke="black" points="73.42,-1348.72 67.89,-1339.68 66.58,-1350.2 73.42,-1348.72"/>
<text text-anchor="middle" x="63" y="-1557.58" font-family="Times,serif" font-size="14.00">&#45;&#45;no&#45;ignore&#45;case</text>
</g>
<!-- _0&#45;&gt;_0 -->
<g id="edge72" class="edge">
<title>_0&#45;&gt;_0</title>
<path fill="none" stroke="black" d="M58.03,-1338.7C37.12,-1426.56 38.78,-1572.38 63,-1572.38 86.28,-1572.38 88.71,-1437.73 70.31,-1349.25"/>
<polygon fill="black" stroke="black" points="73.56,-1348.71 67.97,-1339.7 66.72,-1350.23 73.56,-1348.71"/>
<text text-anchor="middle" x="63" y="-1575.58" font-family="Times,serif" font-size="14.00">&#45;&#45;count</text>
</g>
<!-- _0&#45;&gt;_0 -->
<g id="edge73" class="edge">
<title>_0&#45;&gt;_0</title>
<path fill="none" stroke="black" d="M57.93,-1338.83C35.12,-1432.84 36.8,-1590.38 63,-1590.38 88.22,-1590.38 90.72,-1444.31 70.5,-1349.55"/>
<polygon fill="black" stroke="black" points="73.7,-1348.81 68.07,-1339.83 66.87,-1350.36 73.7,-1348.81"/>
<text text-anchor="middle" x="63" y="-1593.58" font-family="Times,serif" font-size="14.00">&#45;&#45;initial&#45;tab</text>
</g>
<!-- _0&#45;&gt;_0 -->
<g id="edge75" class="edge">
<title>_0&#45;&gt;_0</title>
<path fill="none" stroke="black" d="M57.88,-1338.81C33.11,-1438.93 34.82,-1608.38 63,-1608.38 90.22,-1608.38 92.74,-1450.31 70.57,-1349.31"/>
<polygon fill="black" stroke="black" points="73.8,-1348.75 68.12,-1339.81 66.98,-1350.34 73.8,-1348.75"/>
<text text-anchor="middle" x="63" y="-1611.58" font-family="Times,serif" font-size="14.00">&#45;&#45;no&#45;group&#45;separator</text>
</g>
<!-- _0&#45;&gt;_0 -->
<g id="edge77" class="edge">
<title>_0&#45;&gt;_0</title>
<path fill="none" stroke="black" d="M57.87,-1338.64C31.1,-1444.84 32.81,-1626.38 63,-1626.38 92.21,-1626.38 94.76,-1456.35 70.63,-1349.13"/>
<polygon fill="black" stroke="black" points="73.85,-1348.56 68.13,-1339.64 67.04,-1350.18 73.85,-1348.56"/>
<text text-anchor="middle" x="63" y="-1629.58" font-family="Times,serif" font-size="14.00">&#45;&#45;byte&#45;offset</text>
</g>
<!-- _0&#45;&gt;_0 -->
<g id="edge78" class="edge">
<title>_0&#45;&gt;_0</title>
<path fill="none" stroke="black" d="M57.82,-1338.67C29.1,-1450.96 30.83,-1644.38 63,-1644.38 94.2,-1644.38 96.77,-1462.49 70.71,-1349.08"/>
<polygon fill="black" stroke="black" points="73.94,-1348.56 68.18,-1339.67 67.14,-1350.21 73.94,-1348.56"/>
<text text-anchor="middle" x="63" y="-1647.58" font-family="Times,serif" font-size="14.00">&#45;&#45;dereference&#45;recursive</text>
</g>
<!-- _0&#45;&gt;_0 -->
<g id="edge79" class="edge">
<title>_0&#45;&gt;_0</title>
<path fill="none" stroke="black" d="M57.79,-1338.58C27.09,-1456.95 28.83,-1662.38 63,-1662.38 96.17,-1662.38 98.78,-1468.81 70.82,-1349.2"/>
<polygon fill="black" stroke="black" points="74,-1348.46 68.21,-1339.58 67.2,-1350.13 74,-1348.46"/>
<text text-anchor="middle" x="63" y="-1665.58" font-family="Times,serif" font-size="14.00">&#45;&#45;fixed&#45;strings</text>
</g>
<!-- _0&#45;&gt;_0 -->
<g id="edge80" class="edge">
<title>_0&#45;&gt;_0</title>
<path fill="none" stroke="black" d="M57.71,-1338.78C25.09,-1463.25 26.86,-1680.38 63,-1680.38 98.16,-1680.38 100.79,-1474.96 70.89,-1349.19"/>
<polygon fill="black" stroke="black" points="74.11,-1348.63 68.29,-1339.78 67.32,-1350.32 74.11,-1348.63"/>
<text text-anchor="middle" x="63" y="-1683.58" font-family="Times,serif" font-size="14.00">&#45;&#45;version</text>
</g>
<!-- _0&#45;&gt;_0 -->
<g id="edge81" class="edge">
<title>_0&#45;&gt;_0</title>
<path fill="none" stroke="black" d="M57.74,-1338.49C23.08,-1468.98 24.84,-1698.38 63,-1698.38 100.16,-1698.38 102.8,-1480.92 70.92,-1349.01"/>
<polygon fill="black" stroke="black" points="74.1,-1348.32 68.26,-1339.49 67.32,-1350.04 74.1,-1348.32"/>
<text text-anchor="middle" x="63" y="-1701.58" font-family="Times,serif" font-size="14.00">&#45;&#45;ignore&#45;case</text>
</g>
<!-- _0&#45;&gt;_0 -->
<g id="edge82" class="edge">
<title>_0&#45;&gt;_0</title>
<path fill="none" stroke="black" d="M57.71,-1338.51C21.08,-1475.07 22.85,-1716.38 63,-1716.38 102.13,-1716.38 104.8,-1487.17 71.01,-1349.11"/>
<polygon fill="black" stroke="black" points="74.17,-1348.33 68.29,-1339.51 67.39,-1350.07 74.17,-1348.33"/>
<text text-anchor="middle" x="63" y="-1719.58" font-family="Times,serif" font-size="14.00">&#45;&#45;extended&#45;regexp</text>
</g>
<!-- _0&#45;&gt;_0 -->
<g id="edge83" class="edge">
<title>_0&#45;&gt;_0</title>
<path fill="none" stroke="black" d="M57.69,-1338.46C19.08,-1481.07 20.85,-1734.38 63,-1734.38 104.12,-1734.38 106.81,-1493.29 71.07,-1349.1"/>
<polygon fill="black" stroke="black" points="74.21,-1348.27 68.31,-1339.46 67.43,-1350.02 74.21,-1348.27"/>
<text text-anchor="middle" x="63" y="-1737.58" font-family="Times,serif" font-size="14.00">&#45;&#45;word&#45;regexp</text>
</g>
<!-- _0&#45;&gt;_0 -->
<g id="edge84" class="edge">
<title>_0&#45;&gt;_0</title>
<path fill="none" stroke="black" d="M57.57,-1338.8C17.08,-1487.52 18.89,-1752.38 63,-1752.38 106.12,-1752.38 108.82,-1499.29 71.09,-1348.99"/>
<polygon fill="black" stroke="black" points="74.34,-1348.59 68.43,-1339.8 67.57,-1350.36 74.34,-1348.59"/>
<text text-anchor="middle" x="63" y="-1755.58" font-family="Times,serif" font-size="14.00">&#45;&#45;null&#45;data</text>
</g>
<!-- _0&#45;&gt;_0 -->
<g id="edge91" class="edge">
<title>_0&#45;&gt;_0</title>
<path fill="none" stroke="black" d="M57.59,-1338.62C15.07,-1493.36 16.88,-1770.38 63,-1770.38 108.09,-1770.38 110.82,-1505.66 71.2,-1349.23"/>
<polygon fill="black" stroke="black" points="74.34,-1348.39 68.41,-1339.62 67.57,-1350.18 74.34,-1348.39"/>
<text text-anchor="middle" x="63" y="-1773.58" font-family="Times,serif" font-size="14.00">&#45;&#45;only&#45;matching</text>
</g>
<!-- _0&#45;&gt;_0 -->
<g id="edge92" class="edge">
<title>_0&#45;&gt;_0</title>
<path fill="none" stroke="black" d="M57.5,-1338.86C13.07,-1499.69 14.9,-1788.38 63,-1788.38 110.06,-1788.38 112.83,-1511.96 71.3,-1349.4"/>
<polygon fill="black" stroke="black" points="74.45,-1348.62 68.5,-1339.86 67.68,-1350.42 74.45,-1348.62"/>
<text text-anchor="middle" x="63" y="-1791.58" font-family="Times,serif" font-size="14.00">&#45;&#45;quiet</text>
</g>
<!-- _0&#45;&gt;_0 -->
<g id="edge94" class="edge">
<title>_0&#45;&gt;_0</title>
<path fill="none" stroke="black" d="M57.5,-1338.81C11.07,-1505.68 12.9,-1806.38 63,-1806.38 112.07,-1806.38 114.83,-1517.88 71.3,-1349.24"/>
<polygon fill="black" stroke="black" points="74.47,-1348.56 68.5,-1339.81 67.71,-1350.37 74.47,-1348.56"/>
<text text-anchor="middle" x="63" y="-1809.58" font-family="Times,serif" font-size="14.00">&#45;&#45;files&#45;with&#45;matches</text>
</g>
<!-- _0&#45;&gt;_0 -->
<g id="edge95" class="edge">
<title>_0&#45;&gt;_0</title>
<path fill="none" stroke="black" d="M57.5,-1338.7C9.07,-1511.59 10.9,-1824.38 63,-1824.38 114.06,-1824.38 116.84,-1523.99 71.34,-1349.25"/>
<polygon fill="black" stroke="black" points="74.48,-1348.44 68.5,-1339.7 67.72,-1350.27 74.48,-1348.44"/>
<text text-anchor="middle" x="63" y="-1827.58" font-family="Times,serif" font-size="14.00">&#45;&#45;recursive</text>
</g>
<!-- _0&#45;&gt;_0 -->
<g id="edge97" class="edge">
<title>_0&#45;&gt;_0</title>
<path fill="none" stroke="black" d="M57.45,-1338.81C7.07,-1517.76 8.91,-1842.38 63,-1842.38 116.06,-1842.38 118.85,-1530.01 71.37,-1349.19"/>
<polygon fill="black" stroke="black" points="74.55,-1348.54 68.55,-1339.81 67.79,-1350.38 74.55,-1348.54"/>
<text text-anchor="middle" x="63" y="-1845.58" font-family="Times,serif" font-size="14.00">&#45;&#45;line&#45;buffered</text>
</g>
<!-- _0&#45;&gt;_0 -->
<g id="edge98" class="edge">
<title>_0&#45;&gt;_0</title>
<path fill="none" stroke="black" d="M57.49,-1338.61C5.06,-1523.55 6.9,-1860.38 63,-1860.38 118.06,-1860.38 120.85,-1535.93 71.37,-1349.05"/>
<polygon fill="black" stroke="black" points="74.52,-1348.33 68.51,-1339.61 67.77,-1350.17 74.52,-1348.33"/>
<text text-anchor="middle" x="63" y="-1863.58" font-family="Times,serif" font-size="14.00">&#45;&#45;line&#45;regexp</text>
</g>
<!-- _0&#45;&gt;_0 -->
<g id="edge101" class="edge">
<title>_0&#45;&gt;_0</title>
<path fill="none" stroke="black" d="M57.47,-1338.63C3.06,-1529.62 4.9,-1878.38 63,-1878.38 120.05,-1878.38 122.85,-1542.11 71.43,-1349.14"/>
<polygon fill="black" stroke="black" points="74.56,-1348.35 68.53,-1339.63 67.81,-1350.21 74.56,-1348.35"/>
<text text-anchor="middle" x="63" y="-1881.58" font-family="Times,serif" font-size="14.00">&#45;&#45;with&#45;filename</text>
</g>
<!-- _0&#45;&gt;_0 -->
<g id="edge102" class="edge">
<title>_0&#45;&gt;_0</title>
<path fill="none" stroke="black" d="M57.45,-1338.63C1.06,-1535.64 2.91,-1896.38 63,-1896.38 122.04,-1896.38 124.86,-1548.21 71.47,-1349.17"/>
<polygon fill="black" stroke="black" points="74.59,-1348.33 68.55,-1339.63 67.84,-1350.2 74.59,-1348.33"/>
<text text-anchor="middle" x="63" y="-1899.58" font-family="Times,serif" font-size="14.00">&#45;&#45;no&#45;filename</text>
</g>
<!-- _1 -->
<g id="node2" class="node">
<title>_1</title>
<ellipse fill="none" stroke="black" cx="645.75" cy="-1970.38" rx="18" ry="18"/>
<text text-anchor="middle" x="645.75" y="-1965.33" font-family="Times,serif" font-size="14.00">1</text>
</g>
<!-- _0&#45;&gt;_1 -->
<g id="edge55" class="edge">
<title>_0&#45;&gt;_1</title>
<path fill="none" stroke="black" d="M64.01,-1338.7C64.16,-1480.9 66.76,-2404.07 108,-2444.38 187.73,-2522.32 528.99,-2521.26 609.75,-2444.38 641.98,-2413.69 644.75,-2098.12 644.82,-1999.6"/>
<polygon fill="black" stroke="black" points="648.32,-1999.69 644.81,-1989.69 641.32,-1999.69 648.32,-1999.69"/>
<text text-anchor="middle" x="399.75" y="-2505.58" font-family="Times,serif" font-size="14.00">&#45;&#45;regexp</text>
</g>
<!-- _0&#45;&gt;_1 -->
<g id="edge63" class="edge">
<title>_0&#45;&gt;_1</title>
<path fill="none" stroke="black" d="M64.04,-1338.48C64.39,-1477.08 68.24,-2365.57 108,-2404.38 147.9,-2443.32 569.24,-2442.68 609.75,-2404.38 639.11,-2376.61 643.84,-2092.38 644.6,-1999.54"/>
<polygon fill="black" stroke="black" points="648.11,-1999.74 644.68,-1989.71 641.11,-1999.69 648.11,-1999.74"/>
<text text-anchor="middle" x="399.75" y="-2435.58" font-family="Times,serif" font-size="14.00">&#45;&#45;include</text>
</g>
<!-- _0&#45;&gt;_1 -->
<g id="edge66" class="edge">
<title>_0&#45;&gt;_1</title>
<path fill="none" stroke="black" d="M64.07,-1338.68C64.64,-1474.92 69.76,-2327.11 108,-2364.38 147.93,-2403.29 569.09,-2402.52 609.75,-2364.38 636.24,-2339.54 642.85,-2086.75 644.35,-1999.67"/>
<polygon fill="black" stroke="black" points="647.86,-1999.81 644.52,-1989.75 640.86,-1999.7 647.86,-1999.81"/>
<text text-anchor="middle" x="399.75" y="-2395.58" font-family="Times,serif" font-size="14.00">&#45;&#45;exclude</text>
</g>
<!-- _0&#45;&gt;_1 -->
<g id="edge67" class="edge">
<title>_0&#45;&gt;_1</title>
<path fill="none" stroke="black" d="M64.1,-1338.82C64.9,-1472.48 71.27,-2288.64 108,-2324.38 147.96,-2363.26 568.9,-2362.32 609.75,-2324.38 633.42,-2302.4 641.78,-2079.92 644.04,-1999.33"/>
<polygon fill="black" stroke="black" points="647.56,-1999.6 644.33,-1989.51 640.57,-1999.41 647.56,-1999.6"/>
<text text-anchor="middle" x="399.75" y="-2355.58" font-family="Times,serif" font-size="14.00">&#45;&#45;before&#45;context</text>
</g>
<!-- _0&#45;&gt;_1 -->
<g id="edge74" class="edge">
<title>_0&#45;&gt;_1</title>
<path fill="none" stroke="black" d="M64.13,-1338.5C65.15,-1468.09 72.73,-2250.13 108,-2284.38 147.99,-2323.22 568.66,-2322.06 609.75,-2284.38 630.57,-2265.29 640.54,-2073.64 643.65,-1999.47"/>
<polygon fill="black" stroke="black" points="647.18,-1999.76 644.09,-1989.62 640.19,-1999.47 647.18,-1999.76"/>
<text text-anchor="middle" x="399.75" y="-2315.58" font-family="Times,serif" font-size="14.00">&#45;&#45;group&#45;separator</text>
</g>
<!-- _0&#45;&gt;_1 -->
<g id="edge87" class="edge">
<title>_0&#45;&gt;_1</title>
<path fill="none" stroke="black" d="M64.16,-1338.59C65.39,-1465.49 74.03,-2213.72 108,-2246.38 148.19,-2285.02 568.36,-2281.73 609.75,-2244.38 627.76,-2228.13 639.16,-2066.46 643.15,-1999.35"/>
<polygon fill="black" stroke="black" points="646.69,-1999.88 643.77,-1989.7 639.7,-1999.48 646.69,-1999.88"/>
<text text-anchor="middle" x="399.75" y="-2276.58" font-family="Times,serif" font-size="14.00">&#45;&#45;after&#45;context</text>
</g>
<!-- _0&#45;&gt;_1 -->
<g id="edge90" class="edge">
<title>_0&#45;&gt;_1</title>
<path fill="none" stroke="black" d="M64.19,-1338.84C65.57,-1464.23 74.97,-2186.93 108,-2218.38 126.92,-2236.4 555.44,-2252.96 609.75,-2204.38 639.61,-2177.67 644.29,-2055.81 644.82,-1999.31"/>
<polygon fill="black" stroke="black" points="648.32,-1999.63 644.88,-1989.61 641.32,-1999.59 648.32,-1999.63"/>
<text text-anchor="middle" x="399.75" y="-2238.58" font-family="Times,serif" font-size="14.00">&#45;&#45;exclude&#45;dir</text>
</g>
<!-- _0&#45;&gt;_1 -->
<g id="edge93" class="edge">
<title>_0&#45;&gt;_1</title>
<path fill="none" stroke="black" d="M64.22,-1338.72C65.75,-1461.73 75.9,-2162.86 108,-2193.38 128.12,-2212.52 558.28,-2210.87 609.75,-2164.38 633.67,-2142.77 641.34,-2047.9 643.72,-1999.3"/>
<polygon fill="black" stroke="black" points="647.25,-1999.71 644.2,-1989.57 640.26,-1999.4 647.25,-1999.71"/>
<text text-anchor="middle" x="399.75" y="-2205.58" font-family="Times,serif" font-size="14.00">&#45;&#45;label</text>
</g>
<!-- _0&#45;&gt;_1 -->
<g id="edge96" class="edge">
<title>_0&#45;&gt;_1</title>
<path fill="none" stroke="black" d="M64.25,-1338.86C65.99,-1459.77 77.04,-2134 108,-2163.38 142.96,-2196.57 481.41,-2142.08 559.5,-2101.38 587.16,-2086.96 592.12,-2078.11 609.75,-2052.38 621.23,-2035.62 630.14,-2014.49 636.1,-1997.88"/>
<polygon fill="black" stroke="black" points="639.65,-1999.3 639.58,-1988.71 633.03,-1997.03 639.65,-1999.3"/>
<text text-anchor="middle" x="399.75" y="-2156.58" font-family="Times,serif" font-size="14.00">&#45;&#45;max&#45;count</text>
</g>
<!-- _2 -->
<g id="node3" class="node">
<title>_2</title>
<ellipse fill="none" stroke="black" cx="293.25" cy="-1500.38" rx="18" ry="18"/>
<text text-anchor="middle" x="293.25" y="-1495.33" font-family="Times,serif" font-size="14.00">2</text>
</g>
<!-- _0&#45;&gt;_2 -->
<g id="edge59" class="edge">
<title>_0&#45;&gt;_2</title>
<path fill="none" stroke="black" d="M64.28,-1302.14C65.51,-1249.31 72.15,-1098.02 108,-1067.88 150.86,-1031.84 191.84,-1031.02 234,-1067.88 264.49,-1094.54 284.69,-1378.47 290.51,-1471.24"/>
<polygon fill="black" stroke="black" points="287.07,-1471.29 291.18,-1481.06 294.06,-1470.86 287.07,-1471.29"/>
<text text-anchor="middle" x="171" y="-1071.58" font-family="Times,serif" font-size="14.00">&#45;&#45;colour</text>
</g>
<!-- _0&#45;&gt;_2 -->
<g id="edge76" class="edge">
<title>_0&#45;&gt;_2</title>
<path fill="none" stroke="black" d="M63.73,-1302.23C63.28,-1243.09 65.35,-1057.73 108,-1020.88 129.19,-1002.58 213.04,-1002.31 234,-1020.88 267.93,-1050.93 286.09,-1372.19 290.92,-1471.38"/>
<polygon fill="black" stroke="black" points="287.46,-1471.26 291.43,-1481.09 294.45,-1470.93 287.46,-1471.26"/>
<text text-anchor="middle" x="171" y="-1024.58" font-family="Times,serif" font-size="14.00">&#45;&#45;color</text>
</g>
<!-- _3 -->
<g id="node4" class="node">
<title>_3</title>
<ellipse fill="none" stroke="black" cx="512.25" cy="-764.38" rx="18" ry="18"/>
<text text-anchor="middle" x="512.25" y="-759.33" font-family="Times,serif" font-size="14.00">3</text>
</g>
<!-- _0&#45;&gt;_3 -->
<g id="edge65" class="edge">
<title>_0&#45;&gt;_3</title>
<path fill="none" stroke="black" d="M64.47,-1301.94C67.31,-1194.66 82.81,-655.01 108,-631.38 148.84,-593.07 178.63,-623 234,-631.38 331.99,-646.21 362.69,-645.29 447,-697.38 465.62,-708.88 482.57,-727.04 494.38,-741.55"/>
<polygon fill="black" stroke="black" points="492.1,-743.32 501.03,-749.02 497.61,-739 492.1,-743.32"/>
<text text-anchor="middle" x="293.25" y="-651.58" font-family="Times,serif" font-size="14.00">&#45;&#45;file</text>
</g>
<!-- _0&#45;&gt;_3 -->
<g id="edge99" class="edge">
<title>_0&#45;&gt;_3</title>
<path fill="none" stroke="black" d="M63.82,-1302.06C63.01,-1202.23 61.6,-726.68 108,-683.38 148.94,-645.17 187.97,-651.48 234,-683.38 252.73,-696.36 234.13,-717.24 252,-731.38 320.31,-785.42 431.96,-776.97 483.54,-769.36"/>
<polygon fill="black" stroke="black" points="483.83,-772.7 493.16,-767.68 482.74,-765.79 483.83,-772.7"/>
<text text-anchor="middle" x="293.25" y="-770.58" font-family="Times,serif" font-size="14.00">&#45;&#45;exclude&#45;from</text>
</g>
<!-- _4 -->
<g id="node5" class="node">
<title>_4</title>
<ellipse fill="none" stroke="black" cx="512.25" cy="-514.38" rx="18" ry="18"/>
<text text-anchor="middle" x="512.25" y="-509.33" font-family="Times,serif" font-size="14.00">4</text>
</g>
<!-- _0&#45;&gt;_4 -->
<g id="edge85" class="edge">
<title>_0&#45;&gt;_4</title>
<path fill="none" stroke="black" d="M63.75,-1302.19C62.42,-1193.82 58.08,-636.31 108,-581.38 159.28,-524.95 372.05,-542.39 447,-528.38 459.12,-526.11 472.45,-523.27 483.81,-520.74"/>
<polygon fill="black" stroke="black" points="484.42,-523.96 493.4,-518.34 482.87,-517.13 484.42,-523.96"/>
<text text-anchor="middle" x="293.25" y="-543.58" font-family="Times,serif" font-size="14.00">&#45;&#45;binary&#45;files</text>
</g>
<!-- _5 -->
<g id="node6" class="node">
<title>_5</title>
<ellipse fill="none" stroke="black" cx="512.25" cy="-302.38" rx="18" ry="18"/>
<text text-anchor="middle" x="512.25" y="-297.33" font-family="Times,serif" font-size="14.00">5</text>
</g>
<!-- _0&#45;&gt;_5 -->
<g id="edge86" class="edge">
<title>_0&#45;&gt;_5</title>
<path fill="none" stroke="black" d="M64.18,-1302.04C65.51,-1170.81 74.95,-378.8 108,-341.38 157.21,-285.68 399.98,-295.37 483.2,-300.44"/>
<polygon fill="black" stroke="black" points="482.86,-303.99 493.06,-301.13 483.31,-297 482.86,-303.99"/>
<text text-anchor="middle" x="293.25" y="-303.58" font-family="Times,serif" font-size="14.00">&#45;&#45;directories</text>
</g>
<!-- _6 -->
<g id="node7" class="node">
<title>_6</title>
<ellipse fill="none" stroke="black" cx="512.25" cy="-2074.38" rx="18" ry="18"/>
<text text-anchor="middle" x="512.25" y="-2069.33" font-family="Times,serif" font-size="14.00">6</text>
</g>
<!-- _0&#45;&gt;_6 -->
<g id="edge88" class="edge">
<title>_0&#45;&gt;_6</title>
<path fill="none" stroke="black" d="M64.28,-1338.71C66.17,-1457.21 77.93,-2110.88 108,-2139.38 148.65,-2177.9 180.87,-2157.09 234,-2139.38 243.49,-2136.22 242.87,-2129.96 252,-2125.88 330.95,-2090.64 434.1,-2079.38 483.08,-2075.89"/>
<polygon fill="black" stroke="black" points="483.02,-2079.33 492.77,-2075.19 482.56,-2072.35 483.02,-2079.33"/>
<text text-anchor="middle" x="293.25" y="-2128.58" font-family="Times,serif" font-size="14.00">&#45;&#45;context</text>
</g>
<!-- _7 -->
<g id="node8" class="node">
<title>_7</title>
<ellipse fill="none" stroke="black" cx="512.25" cy="-117.38" rx="18" ry="18"/>
<text text-anchor="middle" x="512.25" y="-112.33" font-family="Times,serif" font-size="14.00">7</text>
</g>
<!-- _0&#45;&gt;_7 -->
<g id="edge89" class="edge">
<title>_0&#45;&gt;_7</title>
<path fill="none" stroke="black" d="M64.02,-1301.97C64.3,-1154.93 67.64,-175.43 108,-129.38 204.38,-19.41 411.77,-80.83 484.99,-107.23"/>
<polygon fill="black" stroke="black" points="483.58,-110.81 494.17,-110.99 486.01,-104.24 483.58,-110.81"/>
<text text-anchor="middle" x="293.25" y="-73.58" font-family="Times,serif" font-size="14.00">&#45;&#45;devices</text>
</g>
<!-- _8 -->
<g id="node9" class="node">
<title>_8</title>
<ellipse fill="none" stroke="black" cx="512.25" cy="-1981.38" rx="18" ry="18"/>
<ellipse fill="none" stroke="black" cx="512.25" cy="-1981.38" rx="22" ry="22"/>
<text text-anchor="middle" x="512.25" y="-1976.33" font-family="Times,serif" font-size="14.00">8</text>
</g>
<!-- _0&#45;&gt;_8 -->
<g id="edge100" class="edge">
<title>_0&#45;&gt;_8</title>
<path fill="none" stroke="black" d="M64.32,-1338.88C66.39,-1455.59 78.92,-2085.87 108,-2113.38 148.68,-2151.87 187.04,-2143.9 234,-2113.38 250.52,-2102.65 236.31,-2084.78 252,-2072.88 321.79,-2019.95 368.53,-2083.29 447,-2044.38 464.45,-2035.73 480.14,-2020.56 491.65,-2007.27"/>
<polygon fill="black" stroke="black" points="494.9,-2009.84 498.59,-1999.9 489.51,-2005.37 494.9,-2009.84"/>
<text text-anchor="middle" x="293.25" y="-2075.58" font-family="Times,serif" font-size="14.00">*</text>
</g>
<!-- _1&#45;&gt;_0 -->
<g id="edge1" class="edge">
<title>_1&#45;&gt;_0</title>
<path fill="none" stroke="black" d="M644.29,-1952C640.59,-1807.13 614.18,-851.86 559.5,-737.38 530.08,-675.8 508.99,-661.42 447,-632.88 402.14,-612.22 145.33,-573.28 108,-608.38 82.71,-632.16 67.97,-1160.54 64.7,-1291.31"/>
<polygon fill="black" stroke="black" points="61.18,-1290.95 64.43,-1301.04 68.18,-1291.13 61.18,-1290.95"/>
<text text-anchor="middle" x="399.75" y="-636.58" font-family="Times,serif" font-size="14.00">*</text>
</g>
<!-- _2&#45;&gt;_0 -->
<g id="edge2" class="edge">
<title>_2&#45;&gt;_0</title>
<path fill="none" stroke="black" d="M291.61,-1482.09C288.34,-1393.97 272.16,-1015.99 234,-981.88 213.13,-963.22 129.04,-963.4 108,-981.88 84.82,-1002.24 70.23,-1213.49 65.6,-1291.58"/>
<polygon fill="black" stroke="black" points="62.08,-1290.91 64.99,-1301.09 69.06,-1291.31 62.08,-1290.91"/>
<text text-anchor="middle" x="171" y="-985.58" font-family="Times,serif" font-size="14.00">&#45;&#45;silent</text>
</g>
<!-- _2&#45;&gt;_0 -->
<g id="edge4" class="edge">
<title>_2&#45;&gt;_0</title>
<path fill="none" stroke="black" d="M291.74,-1482.13C289.02,-1390.59 274.68,-984.5 234,-947.88 192.38,-910.42 149.86,-910.68 108,-947.88 82.4,-970.63 69.16,-1207.56 65.26,-1291.28"/>
<polygon fill="black" stroke="black" points="61.71,-1291.1 64.76,-1301.25 68.71,-1291.42 61.71,-1291.1"/>
<text text-anchor="middle" x="171" y="-951.58" font-family="Times,serif" font-size="14.00">&#45;&#45;line&#45;number</text>
</g>
<!-- _2&#45;&gt;_0 -->
<g id="edge5" class="edge">
<title>_2&#45;&gt;_0</title>
<path fill="none" stroke="black" d="M291.91,-1482.16C289.9,-1385.96 278.26,-940.05 234,-899.88 213.27,-881.06 128.8,-881.14 108,-899.88 78.94,-926.06 67.77,-1200.17 64.84,-1291.19"/>
<polygon fill="black" stroke="black" points="61.32,-1290.96 64.5,-1301.07 68.31,-1291.18 61.32,-1290.96"/>
<text text-anchor="middle" x="171" y="-903.58" font-family="Times,serif" font-size="14.00">&#45;&#45;perl&#45;regexp</text>
</g>
<!-- _2&#45;&gt;_0 -->
<g id="edge6" class="edge">
<title>_2&#45;&gt;_0</title>
<path fill="none" stroke="black" d="M292,-1482.12C290.48,-1382.6 280.78,-908.57 234,-865.88 213.32,-847.01 128.73,-847.06 108,-865.88 76.48,-894.49 66.88,-1195.05 64.6,-1291.07"/>
<polygon fill="black" stroke="black" points="61.08,-1290.9 64.36,-1300.98 68.08,-1291.06 61.08,-1290.9"/>
<text text-anchor="middle" x="171" y="-869.58" font-family="Times,serif" font-size="14.00">&#45;&#45;binary</text>
</g>
<!-- _2&#45;&gt;_0 -->
<g id="edge8" class="edge">
<title>_2&#45;&gt;_0</title>
<path fill="none" stroke="black" d="M292.09,-1482.16C291.03,-1379.59 283.33,-877.1 234,-831.88 192.72,-794.04 149.34,-794.1 108,-831.88 73.99,-862.96 66.04,-1190.65 64.39,-1291.2"/>
<polygon fill="black" stroke="black" points="60.88,-1290.99 64.22,-1301.05 67.88,-1291.1 60.88,-1290.99"/>
<text text-anchor="middle" x="171" y="-835.58" font-family="Times,serif" font-size="14.00">&#45;&#45;help</text>
</g>
<!-- _2&#45;&gt;_0 -->
<g id="edge9" class="edge">
<title>_2&#45;&gt;_0</title>
<path fill="none" stroke="black" d="M292.21,-1481.92C291.76,-1374.46 286.87,-832.63 234,-783.88 213.41,-764.9 128.59,-764.91 108,-783.88 70.49,-818.44 64.96,-1184.23 64.14,-1291.17"/>
<polygon fill="black" stroke="black" points="60.64,-1291.06 64.07,-1301.08 67.63,-1291.1 60.64,-1291.06"/>
<text text-anchor="middle" x="171" y="-787.58" font-family="Times,serif" font-size="14.00">&#45;&#45;basic&#45;regexp</text>
</g>
<!-- _2&#45;&gt;_0 -->
<g id="edge10" class="edge">
<title>_2&#45;&gt;_0</title>
<path fill="none" stroke="black" d="M292.28,-1482.13C292.25,-1372.2 289.45,-801.2 234,-749.88 192.9,-711.85 149.09,-711.84 108,-749.88 67.96,-786.95 64.24,-1180.66 63.99,-1291.49"/>
<polygon fill="black" stroke="black" points="60.49,-1291.16 63.97,-1301.17 67.49,-1291.17 60.49,-1291.16"/>
<text text-anchor="middle" x="171" y="-753.58" font-family="Times,serif" font-size="14.00">&#45;&#45;null</text>
</g>
<!-- _2&#45;&gt;_0 -->
<g id="edge12" class="edge">
<title>_2&#45;&gt;_0</title>
<path fill="none" stroke="black" d="M291.62,-1482.1C287.48,-1365.39 263.62,-728.42 234,-700.88 213.49,-681.81 128.49,-681.8 108,-700.88 64.43,-741.47 63.29,-1173.33 63.8,-1290.95"/>
<polygon fill="black" stroke="black" points="60.3,-1290.94 63.85,-1300.92 67.3,-1290.91 60.3,-1290.94"/>
<text text-anchor="middle" x="171" y="-704.58" font-family="Times,serif" font-size="14.00">&#45;&#45;text</text>
</g>
<!-- _2&#45;&gt;_0 -->
<g id="edge16" class="edge">
<title>_2&#45;&gt;_0</title>
<path fill="none" stroke="black" d="M291.83,-1518.54C289.5,-1612.41 276.59,-2039.86 234,-2078.38 213.23,-2097.16 128.36,-2097.6 108,-2078.38 81.01,-2052.92 67.46,-1485.74 64.59,-1349.57"/>
<polygon fill="black" stroke="black" points="68.07,-1349.72 64.36,-1339.79 61.07,-1349.86 68.07,-1349.72"/>
<text text-anchor="middle" x="171" y="-2095.58" font-family="Times,serif" font-size="14.00">&#45;&#45;invert&#45;match</text>
</g>
<!-- _2&#45;&gt;_0 -->
<g id="edge17" class="edge">
<title>_2&#45;&gt;_0</title>
<path fill="none" stroke="black" d="M291.68,-1518.75C288.72,-1609.04 273.59,-2002.85 234,-2038.38 213.16,-2057.08 128.4,-2057.56 108,-2038.38 82.5,-2014.4 67.91,-1481.57 64.69,-1349.7"/>
<polygon fill="black" stroke="black" points="68.17,-1349.79 64.43,-1339.88 61.17,-1349.96 68.17,-1349.79"/>
<text text-anchor="middle" x="171" y="-2055.58" font-family="Times,serif" font-size="14.00">&#45;&#45;no&#45;messages</text>
</g>
<!-- _2&#45;&gt;_0 -->
<g id="edge18" class="edge">
<title>_2&#45;&gt;_0</title>
<path fill="none" stroke="black" d="M291.53,-1518.51C287.93,-1604.2 270.66,-1965.76 234,-1998.38 213.08,-2016.99 128.43,-2017.53 108,-1998.38 60.11,-1953.5 62.23,-1474.17 63.61,-1349.75"/>
<polygon fill="black" stroke="black" points="67.12,-1349.88 63.73,-1339.84 60.12,-1349.8 67.12,-1349.88"/>
<text text-anchor="middle" x="171" y="-2015.58" font-family="Times,serif" font-size="14.00">&#45;&#45;files&#45;without&#45;match</text>
</g>
<!-- _2&#45;&gt;_0 -->
<g id="edge19" class="edge">
<title>_2&#45;&gt;_0</title>
<path fill="none" stroke="black" d="M291.33,-1518.67C287.02,-1600.31 267.68,-1928.71 234,-1958.38 212.99,-1976.89 128.47,-1977.49 108,-1958.38 63.03,-1916.41 62.95,-1468.96 63.73,-1349.54"/>
<polygon fill="black" stroke="black" points="67.24,-1349.75 63.81,-1339.73 60.24,-1349.7 67.24,-1349.75"/>
<text text-anchor="middle" x="171" y="-1975.58" font-family="Times,serif" font-size="14.00">&#45;&#45;no&#45;ignore&#45;case</text>
</g>
<!-- _2&#45;&gt;_0 -->
<g id="edge20" class="edge">
<title>_2&#45;&gt;_0</title>
<path fill="none" stroke="black" d="M292.71,-1518.7C294.11,-1592.33 295.07,-1865.23 234,-1918.38 212.88,-1936.76 128.51,-1937.44 108,-1918.38 65.97,-1879.33 63.7,-1464.16 63.88,-1349.55"/>
<polygon fill="black" stroke="black" points="67.38,-1349.84 63.9,-1339.83 60.38,-1349.82 67.38,-1349.84"/>
<text text-anchor="middle" x="171" y="-1935.58" font-family="Times,serif" font-size="14.00">&#45;&#45;count</text>
</g>
<!-- _2&#45;&gt;_0 -->
<g id="edge21" class="edge">
<title>_2&#45;&gt;_0</title>
<path fill="none" stroke="black" d="M292.41,-1518.82C292.58,-1588.07 289.19,-1831.05 234,-1878.38 212.75,-1896.61 128.56,-1897.39 108,-1878.38 68.93,-1842.27 64.5,-1459.51 64.04,-1349.69"/>
<polygon fill="black" stroke="black" points="67.54,-1349.79 64.01,-1339.8 60.54,-1349.81 67.54,-1349.79"/>
<text text-anchor="middle" x="171" y="-1894.58" font-family="Times,serif" font-size="14.00">&#45;&#45;initial&#45;tab</text>
</g>
<!-- _2&#45;&gt;_0 -->
<g id="edge23" class="edge">
<title>_2&#45;&gt;_0</title>
<path fill="none" stroke="black" d="M292.05,-1518.63C290.91,-1582.84 283.41,-1796.76 234,-1838.38 212.59,-1856.42 128.62,-1857.32 108,-1838.38 71.84,-1805.16 65.36,-1454.12 64.23,-1349.59"/>
<polygon fill="black" stroke="black" points="67.72,-1349.6 64.12,-1339.63 60.72,-1349.67 67.72,-1349.6"/>
<text text-anchor="middle" x="171" y="-1854.58" font-family="Times,serif" font-size="14.00">&#45;&#45;no&#45;group&#45;separator</text>
</g>
<!-- _2&#45;&gt;_0 -->
<g id="edge25" class="edge">
<title>_2&#45;&gt;_0</title>
<path fill="none" stroke="black" d="M291.59,-1518.5C289.05,-1577.51 277.64,-1762.44 234,-1798.38 212.39,-1816.18 128.69,-1817.25 108,-1798.38 74.76,-1768.06 66.29,-1448.76 64.45,-1349.59"/>
<polygon fill="black" stroke="black" points="67.94,-1349.82 64.27,-1339.88 60.94,-1349.94 67.94,-1349.82"/>
<text text-anchor="middle" x="171" y="-1814.58" font-family="Times,serif" font-size="14.00">&#45;&#45;byte&#45;offset</text>
</g>
<!-- _2&#45;&gt;_0 -->
<g id="edge26" class="edge">
<title>_2&#45;&gt;_0</title>
<path fill="none" stroke="black" d="M290.99,-1518.69C286.87,-1572.48 271.84,-1728.13 234,-1758.38 212.13,-1775.86 128.76,-1777.16 108,-1758.38 77.66,-1730.94 67.29,-1443.06 64.71,-1349.54"/>
<polygon fill="black" stroke="black" points="68.19,-1349.55 64.42,-1339.65 61.19,-1349.74 68.19,-1349.55"/>
<text text-anchor="middle" x="171" y="-1774.58" font-family="Times,serif" font-size="14.00">auto</text>
</g>
<!-- _2&#45;&gt;_0 -->
<g id="edge27" class="edge">
<title>_2&#45;&gt;_0</title>
<path fill="none" stroke="black" d="M290.2,-1518.57C284.4,-1566.39 266.16,-1693.69 234,-1718.38 211.79,-1735.43 128.86,-1737.06 108,-1718.38 80.56,-1693.8 68.39,-1437.03 65.02,-1349.45"/>
<polygon fill="black" stroke="black" points="68.49,-1349.58 64.62,-1339.72 61.5,-1349.84 68.49,-1349.58"/>
<text text-anchor="middle" x="171" y="-1734.58" font-family="Times,serif" font-size="14.00">&#45;&#45;fixed&#45;strings</text>
</g>
<!-- _2&#45;&gt;_0 -->
<g id="edge28" class="edge">
<title>_2&#45;&gt;_0</title>
<path fill="none" stroke="black" d="M292.66,-1518.68C292.37,-1556.08 285.73,-1640.88 234,-1678.38 211.33,-1694.81 128.97,-1696.93 108,-1678.38 83.47,-1656.68 69.65,-1431.35 65.41,-1349.71"/>
<polygon fill="black" stroke="black" points="68.86,-1349.56 64.86,-1339.75 61.87,-1349.91 68.86,-1349.56"/>
<text text-anchor="middle" x="171" y="-1694.58" font-family="Times,serif" font-size="14.00">&#45;&#45;dereference&#45;recursive</text>
</g>
<!-- _2&#45;&gt;_0 -->
<g id="edge29" class="edge">
<title>_2&#45;&gt;_0</title>
<path fill="none" stroke="black" d="M290.73,-1518.7C287.06,-1549.6 274.74,-1611.36 234,-1638.38 210.67,-1653.86 129.11,-1656.77 108,-1638.38 65.11,-1601.01 62.64,-1421.04 63.4,-1349.65"/>
<polygon fill="black" stroke="black" points="66.92,-1349.82 63.56,-1339.78 59.92,-1349.73 66.92,-1349.82"/>
<text text-anchor="middle" x="171" y="-1653.58" font-family="Times,serif" font-size="14.00">&#45;&#45;version</text>
</g>
<!-- _2&#45;&gt;_0 -->
<g id="edge30" class="edge">
<title>_2&#45;&gt;_0</title>
<path fill="none" stroke="black" d="M287.73,-1517.67C280.64,-1540.84 264.45,-1581.06 234,-1598.38 209.66,-1612.23 129.29,-1616.57 108,-1598.38 70.76,-1566.57 64.86,-1414.11 64.06,-1349.46"/>
<polygon fill="black" stroke="black" points="67.55,-1349.78 63.96,-1339.81 60.55,-1349.84 67.55,-1349.78"/>
<text text-anchor="middle" x="171" y="-1613.58" font-family="Times,serif" font-size="14.00">&#45;&#45;ignore&#45;case</text>
</g>
<!-- _2&#45;&gt;_0 -->
<g id="edge31" class="edge">
<title>_2&#45;&gt;_0</title>
<path fill="none" stroke="black" d="M282.53,-1515.32C272.36,-1529.44 254.97,-1549.72 234,-1558.38 208.12,-1569.07 129.52,-1576.29 108,-1558.38 76.42,-1532.11 67.41,-1407.13 64.92,-1349.55"/>
<polygon fill="black" stroke="black" points="68.38,-1349.52 64.49,-1339.66 61.39,-1349.79 68.38,-1349.52"/>
<text text-anchor="middle" x="171" y="-1571.58" font-family="Times,serif" font-size="14.00">&#45;&#45;extended&#45;regexp</text>
</g>
<!-- _2&#45;&gt;_0 -->
<g id="edge32" class="edge">
<title>_2&#45;&gt;_0</title>
<path fill="none" stroke="black" d="M276.86,-1508.36C242.39,-1524.99 158.14,-1558.6 108,-1518.38 82.01,-1497.53 70.4,-1399.29 66.11,-1349.49"/>
<polygon fill="black" stroke="black" points="69.54,-1349.47 65.24,-1339.79 62.56,-1350.04 69.54,-1349.47"/>
<text text-anchor="middle" x="171" y="-1539.58" font-family="Times,serif" font-size="14.00">&#45;&#45;word&#45;regexp</text>
</g>
<!-- _2&#45;&gt;_0 -->
<g id="edge33" class="edge">
<title>_2&#45;&gt;_0</title>
<path fill="none" stroke="black" d="M275.04,-1499.41C231.68,-1496.81 120.56,-1489.16 108,-1478.38 70.65,-1446.34 63.68,-1385.57 63.09,-1349.45"/>
<polygon fill="black" stroke="black" points="66.59,-1349.66 63.09,-1339.65 59.59,-1349.65 66.59,-1349.66"/>
<text text-anchor="middle" x="171" y="-1499.58" font-family="Times,serif" font-size="14.00">&#45;&#45;null&#45;data</text>
</g>
<!-- _2&#45;&gt;_0 -->
<g id="edge39" class="edge">
<title>_2&#45;&gt;_0</title>
<path fill="none" stroke="black" d="M279.49,-1488.24C268.37,-1478.41 251.35,-1465.05 234,-1457.88 181.63,-1436.24 151.93,-1474.18 108,-1438.38 81.3,-1416.63 70.8,-1376.98 66.67,-1349.68"/>
<polygon fill="black" stroke="black" points="70.02,-1349.3 65.26,-1339.83 63.08,-1350.2 70.02,-1349.3"/>
<text text-anchor="middle" x="171" y="-1460.58" font-family="Times,serif" font-size="14.00">never</text>
</g>
<!-- _2&#45;&gt;_0 -->
<g id="edge40" class="edge">
<title>_2&#45;&gt;_0</title>
<path fill="none" stroke="black" d="M285.37,-1483.68C276.51,-1464.44 259.19,-1433.49 234,-1417.88 185.83,-1388.03 154.6,-1430.63 108,-1398.38 90.95,-1386.58 79.73,-1365.92 72.89,-1348.82"/>
<polygon fill="black" stroke="black" points="75.92,-1347.92 69.18,-1339.75 69.35,-1350.34 75.92,-1347.92"/>
<text text-anchor="middle" x="171" y="-1420.58" font-family="Times,serif" font-size="14.00">always</text>
</g>
<!-- _2&#45;&gt;_0 -->
<g id="edge41" class="edge">
<title>_2&#45;&gt;_0</title>
<path fill="none" stroke="black" d="M289.17,-1482.46C283.48,-1455.16 268.56,-1403.62 234,-1377.88 188.56,-1344.03 159.44,-1382.16 108,-1358.38 100.01,-1354.69 92.36,-1349.1 85.74,-1343.34"/>
<polygon fill="black" stroke="black" points="88.67,-1341.35 78.97,-1337.08 83.89,-1346.47 88.67,-1341.35"/>
<text text-anchor="middle" x="171" y="-1380.58" font-family="Times,serif" font-size="14.00">&#45;&#45;quiet</text>
</g>
<!-- _2&#45;&gt;_0 -->
<g id="edge42" class="edge">
<title>_2&#45;&gt;_0</title>
<path fill="none" stroke="black" d="M291.68,-1482.18C289.52,-1447.8 279.53,-1373.55 234,-1337.88 214.02,-1322.23 144.8,-1319.68 101.09,-1319.71"/>
<polygon fill="black" stroke="black" points="101.29,-1316.22 91.31,-1319.77 101.33,-1323.22 101.29,-1316.22"/>
<text text-anchor="middle" x="171" y="-1340.58" font-family="Times,serif" font-size="14.00">&#45;&#45;only&#45;matching</text>
</g>
<!-- _2&#45;&gt;_0 -->
<g id="edge45" class="edge">
<title>_2&#45;&gt;_0</title>
<path fill="none" stroke="black" d="M289.79,-1482.25C283.24,-1437.03 263.83,-1321.31 234,-1298.88 189.24,-1265.23 162.56,-1286.26 108,-1298.88 103.21,-1299.99 98.34,-1301.69 93.67,-1303.67"/>
<polygon fill="black" stroke="black" points="92.42,-1300.86 84.88,-1308.29 95.41,-1307.19 92.42,-1300.86"/>
<text text-anchor="middle" x="171" y="-1301.58" font-family="Times,serif" font-size="14.00">&#45;&#45;files&#45;with&#45;matches</text>
</g>
<!-- _2&#45;&gt;_0 -->
<g id="edge46" class="edge">
<title>_2&#45;&gt;_0</title>
<path fill="none" stroke="black" d="M290.68,-1482.21C285.86,-1431.05 269.37,-1287.71 234,-1259.88 211.99,-1242.57 132.95,-1247.17 108,-1259.88 94.39,-1266.81 84,-1280.13 76.75,-1292.52"/>
<polygon fill="black" stroke="black" points="73.24,-1290.64 71.6,-1301.11 79.41,-1293.96 73.24,-1290.64"/>
<text text-anchor="middle" x="171" y="-1262.58" font-family="Times,serif" font-size="14.00">&#45;&#45;recursive</text>
</g>
<!-- _2&#45;&gt;_0 -->
<g id="edge48" class="edge">
<title>_2&#45;&gt;_0</title>
<path fill="none" stroke="black" d="M291.24,-1482.25C287.72,-1426.63 273.97,-1260.21 234,-1227.88 190.46,-1192.66 155.34,-1197.97 108,-1227.88 86.11,-1241.71 74.88,-1269.74 69.28,-1291.33"/>
<polygon fill="black" stroke="black" points="65.67,-1290.4 66.83,-1300.93 72.49,-1291.97 65.67,-1290.4"/>
<text text-anchor="middle" x="171" y="-1230.58" font-family="Times,serif" font-size="14.00">&#45;&#45;line&#45;buffered</text>
</g>
<!-- _2&#45;&gt;_0 -->
<g id="edge49" class="edge">
<title>_2&#45;&gt;_0</title>
<path fill="none" stroke="black" d="M291.82,-1481.96C289.96,-1420.1 280.39,-1221.53 234,-1182.88 212.49,-1164.96 130.62,-1166.37 108,-1182.88 73.95,-1207.73 65.65,-1259.27 63.96,-1291.71"/>
<polygon fill="black" stroke="black" points="60.44,-1291.2 63.61,-1301.31 67.44,-1291.43 60.44,-1291.2"/>
<text text-anchor="middle" x="171" y="-1185.58" font-family="Times,serif" font-size="14.00">&#45;&#45;line&#45;regexp</text>
</g>
<!-- _2&#45;&gt;_0 -->
<g id="edge52" class="edge">
<title>_2&#45;&gt;_0</title>
<path fill="none" stroke="black" d="M292.18,-1482.33C291.51,-1416.72 285.43,-1192.49 234,-1148.88 191.29,-1112.66 152.25,-1114.55 108,-1148.88 85.66,-1166.21 72.7,-1247.21 67.18,-1291.42"/>
<polygon fill="black" stroke="black" points="63.62,-1290.71 65.91,-1301.06 70.57,-1291.54 63.62,-1290.71"/>
<text text-anchor="middle" x="171" y="-1151.58" font-family="Times,serif" font-size="14.00">&#45;&#45;with&#45;filename</text>
</g>
<!-- _2&#45;&gt;_0 -->
<g id="edge53" class="edge">
<title>_2&#45;&gt;_0</title>
<path fill="none" stroke="black" d="M292.57,-1481.94C293.38,-1410.33 292.18,-1152.18 234,-1101.88 212.82,-1083.57 129.67,-1084.14 108,-1101.88 79.13,-1125.52 68.79,-1237.54 65.44,-1291.37"/>
<polygon fill="black" stroke="black" points="61.9,-1291.03 64.81,-1301.22 68.88,-1291.44 61.9,-1291.03"/>
<text text-anchor="middle" x="171" y="-1104.58" font-family="Times,serif" font-size="14.00">&#45;&#45;no&#45;filename</text>
</g>
<!-- _2&#45;&gt;_1 -->
<g id="edge3" class="edge">
<title>_2&#45;&gt;_1</title>
<path fill="none" stroke="black" d="M294.4,-1518.77C295.36,-1587.9 302.29,-1830.99 352.5,-1885.38 416.59,-1954.81 469.73,-1904.4 559.5,-1933.88 580.15,-1940.66 602.72,-1950.44 619.45,-1958.17"/>
<polygon fill="black" stroke="black" points="617.5,-1961.59 628.04,-1962.67 620.48,-1955.25 617.5,-1961.59"/>
<text text-anchor="middle" x="512.25" y="-1936.58" font-family="Times,serif" font-size="14.00">&#45;&#45;regexp</text>
</g>
<!-- _2&#45;&gt;_1 -->
<g id="edge11" class="edge">
<title>_2&#45;&gt;_1</title>
<path fill="none" stroke="black" d="M295.06,-1518.65C298.19,-1581.02 311.39,-1784.37 352.5,-1832.38 415.71,-1906.2 472.33,-1859.9 559.5,-1902.88 583.57,-1914.75 588.87,-1919.51 609.75,-1936.38 614.9,-1940.54 620.17,-1945.33 625,-1949.98"/>
<polygon fill="black" stroke="black" points="622.06,-1951.98 631.63,-1956.52 626.98,-1947 622.06,-1951.98"/>
<text text-anchor="middle" x="512.25" y="-1905.58" font-family="Times,serif" font-size="14.00">&#45;&#45;include</text>
</g>
<!-- _2&#45;&gt;_1 -->
<g id="edge14" class="edge">
<title>_2&#45;&gt;_1</title>
<path fill="none" stroke="black" d="M295.78,-1518.34C300.81,-1573.51 318.52,-1739.27 352.5,-1779.38 416.31,-1854.7 476.36,-1806.67 559.5,-1859.88 585.64,-1876.61 590.76,-1883.83 609.75,-1908.38 618.35,-1919.5 626.21,-1932.97 632.3,-1944.51"/>
<polygon fill="black" stroke="black" points="629.5,-1945.73 637.17,-1953.05 635.74,-1942.55 629.5,-1945.73"/>
<text text-anchor="middle" x="512.25" y="-1862.58" font-family="Times,serif" font-size="14.00">&#45;&#45;exclude</text>
</g>
<!-- _2&#45;&gt;_1 -->
<g id="edge15" class="edge">
<title>_2&#45;&gt;_1</title>
<path fill="none" stroke="black" d="M293.71,-1518.73C293.47,-1560.79 298.68,-1665.25 352.5,-1726.38 417.94,-1800.71 479.15,-1750.98 559.5,-1808.88 587.58,-1829.11 592.67,-1838.27 609.75,-1868.38 622.98,-1891.71 632.36,-1920.87 638.06,-1942.03"/>
<polygon fill="black" stroke="black" points="634.9,-1942.77 640.78,-1951.58 641.68,-1941.03 634.9,-1942.77"/>
<text text-anchor="middle" x="512.25" y="-1811.58" font-family="Times,serif" font-size="14.00">&#45;&#45;before&#45;context</text>
</g>
<!-- _2&#45;&gt;_1 -->
<g id="edge22" class="edge">
<title>_2&#45;&gt;_1</title>
<path fill="none" stroke="black" d="M295.44,-1518.6C298.65,-1553.24 310.35,-1629.06 352.5,-1673.38 420.63,-1745.03 480.09,-1695.97 559.5,-1754.88 588.41,-1776.32 594.16,-1785.94 609.75,-1818.38 629.07,-1858.6 638.02,-1910.01 641.94,-1941.55"/>
<polygon fill="black" stroke="black" points="638.55,-1941.68 643.17,-1951.21 645.51,-1940.88 638.55,-1941.68"/>
<text text-anchor="middle" x="512.25" y="-1757.58" font-family="Times,serif" font-size="14.00">&#45;&#45;group&#45;separator</text>
</g>
<!-- _2&#45;&gt;_1 -->
<g id="edge36" class="edge">
<title>_2&#45;&gt;_1</title>
<path fill="none" stroke="black" d="M298.37,-1517.94C305.29,-1543.78 321.63,-1592.03 352.5,-1620.38 425.09,-1687.04 480.54,-1640.9 559.5,-1699.88 588.9,-1721.84 595.07,-1731.76 609.75,-1765.38 635.45,-1824.23 642.33,-1900.26 644.14,-1941.19"/>
<polygon fill="black" stroke="black" points="640.67,-1941.13 644.53,-1951 647.67,-1940.88 640.67,-1941.13"/>
<text text-anchor="middle" x="512.25" y="-1702.58" font-family="Times,serif" font-size="14.00">&#45;&#45;after&#45;context</text>
</g>
<!-- _2&#45;&gt;_1 -->
<g id="edge43" class="edge">
<title>_2&#45;&gt;_1</title>
<path fill="none" stroke="black" d="M303.93,-1515.39C314.31,-1530.41 332.08,-1553.28 352.5,-1567.38 433.2,-1623.13 480.76,-1585.4 559.5,-1643.88 589.24,-1665.97 595.65,-1676.12 609.75,-1710.38 642.17,-1789.14 645.9,-1891.58 645.56,-1941.07"/>
<polygon fill="black" stroke="black" points="642.05,-1940.86 645.41,-1950.91 649.05,-1940.96 642.05,-1940.86"/>
<text text-anchor="middle" x="512.25" y="-1646.58" font-family="Times,serif" font-size="14.00">&#45;&#45;exclude&#45;dir</text>
</g>
<!-- _2&#45;&gt;_1 -->
<g id="edge44" class="edge">
<title>_2&#45;&gt;_1</title>
<path fill="none" stroke="black" d="M311.02,-1504.26C362.6,-1516.42 517.9,-1554.77 559.5,-1584.88 590.38,-1607.23 596.03,-1618.82 609.75,-1654.38 629.84,-1706.47 640.04,-1873.56 643.43,-1941.37"/>
<polygon fill="black" stroke="black" points="639.97,-1941.29 643.95,-1951.1 646.96,-1940.95 639.97,-1941.29"/>
<text text-anchor="middle" x="512.25" y="-1587.58" font-family="Times,serif" font-size="14.00">&#45;&#45;label</text>
</g>
<!-- _2&#45;&gt;_1 -->
<g id="edge47" class="edge">
<title>_2&#45;&gt;_1</title>
<path fill="none" stroke="black" d="M311.21,-1497.47C355.5,-1490.76 476.95,-1478.25 559.5,-1525.88 592.52,-1544.93 596.34,-1559.7 609.75,-1595.38 633.55,-1658.69 641.74,-1864.58 644.01,-1941.25"/>
<polygon fill="black" stroke="black" points="640.53,-1941.11 644.31,-1951 647.53,-1940.91 640.53,-1941.11"/>
<text text-anchor="middle" x="512.25" y="-1528.58" font-family="Times,serif" font-size="14.00">&#45;&#45;max&#45;count</text>
</g>
<!-- _2&#45;&gt;_2 -->
<g id="edge7" class="edge">
<title>_2&#45;&gt;_2</title>
<path fill="none" stroke="black" d="M284.06,-1516.3C281.66,-1526.53 284.72,-1536.38 293.25,-1536.38 298.58,-1536.38 301.78,-1532.53 302.84,-1527.15"/>
<polygon fill="black" stroke="black" points="306.3,-1527.16 302.44,-1517.3 299.31,-1527.42 306.3,-1527.16"/>
<text text-anchor="middle" x="293.25" y="-1539.58" font-family="Times,serif" font-size="14.00">&#45;&#45;colour</text>
</g>
<!-- _2&#45;&gt;_2 -->
<g id="edge24" class="edge">
<title>_2&#45;&gt;_2</title>
<path fill="none" stroke="black" d="M280.14,-1513.4C267.77,-1531.74 272.14,-1554.38 293.25,-1554.38 310.73,-1554.38 316.74,-1538.86 311.26,-1523.1"/>
<polygon fill="black" stroke="black" points="313.99,-1521.75 306.36,-1514.4 307.74,-1524.9 313.99,-1521.75"/>
<text text-anchor="middle" x="293.25" y="-1557.58" font-family="Times,serif" font-size="14.00">&#45;&#45;color</text>
</g>
<!-- _2&#45;&gt;_3 -->
<g id="edge13" class="edge">
<title>_2&#45;&gt;_3</title>
<path fill="none" stroke="black" d="M304.76,-1486.2C333.05,-1447.22 411.12,-1334.21 447,-1227.38 499.97,-1069.65 509.31,-867.58 510.92,-793.37"/>
<polygon fill="black" stroke="black" points="514.44,-793.65 511.12,-783.59 507.44,-793.52 514.44,-793.65"/>
<text text-anchor="middle" x="399.75" y="-1415.58" font-family="Times,serif" font-size="14.00">&#45;&#45;file</text>
</g>
<!-- _2&#45;&gt;_3 -->
<g id="edge50" class="edge">
<title>_2&#45;&gt;_3</title>
<path fill="none" stroke="black" d="M296.88,-1482.3C303.82,-1435.98 324.08,-1309.51 352.5,-1206.88 397.17,-1045.61 472.11,-858.82 500.19,-790.84"/>
<polygon fill="black" stroke="black" points="503.68,-792.55 504.28,-781.97 497.22,-789.87 503.68,-792.55"/>
<text text-anchor="middle" x="399.75" y="-1209.58" font-family="Times,serif" font-size="14.00">&#45;&#45;exclude&#45;from</text>
</g>
<!-- _2&#45;&gt;_4 -->
<g id="edge34" class="edge">
<title>_2&#45;&gt;_4</title>
<path fill="none" stroke="black" d="M294.19,-1482.22C294.36,-1409.32 298.67,-1131.17 352.5,-910.88 388.19,-764.83 466.94,-601.39 498.14,-539.74"/>
<polygon fill="black" stroke="black" points="501.64,-541.58 503.06,-531.08 495.4,-538.4 501.64,-541.58"/>
<text text-anchor="middle" x="399.75" y="-914.58" font-family="Times,serif" font-size="14.00">&#45;&#45;binary&#45;files</text>
</g>
<!-- _2&#45;&gt;_5 -->
<g id="edge35" class="edge">
<title>_2&#45;&gt;_5</title>
<path fill="none" stroke="black" d="M295.17,-1482.17C301.53,-1356.84 339.09,-625.7 352.5,-580.88 368.71,-526.7 459.24,-383.01 495.87,-326.09"/>
<polygon fill="black" stroke="black" points="499.18,-328.41 501.66,-318.11 493.3,-324.62 499.18,-328.41"/>
<text text-anchor="middle" x="399.75" y="-584.58" font-family="Times,serif" font-size="14.00">&#45;&#45;directories</text>
</g>
<!-- _2&#45;&gt;_6 -->
<g id="edge37" class="edge">
<title>_2&#45;&gt;_6</title>
<path fill="none" stroke="black" d="M294.06,-1518.68C293.59,-1599.17 295.34,-1921.2 352.5,-2000.38 383.87,-2043.84 447.3,-2062.53 483.77,-2069.96"/>
<polygon fill="black" stroke="black" points="482.68,-2073.51 493.16,-2071.92 483.98,-2066.63 482.68,-2073.51"/>
<text text-anchor="middle" x="399.75" y="-2062.58" font-family="Times,serif" font-size="14.00">&#45;&#45;context</text>
</g>
<!-- _2&#45;&gt;_7 -->
<g id="edge38" class="edge">
<title>_2&#45;&gt;_7</title>
<path fill="none" stroke="black" d="M295.35,-1482.13C300.23,-1400.68 320.37,-1062.28 334.5,-784.38 338.97,-696.51 327.57,-473.25 352.5,-388.88 382.54,-287.2 458.35,-183.56 493.21,-139.44"/>
<polygon fill="black" stroke="black" points="496.48,-141.95 499.99,-131.95 491.02,-137.57 496.48,-141.95"/>
<text text-anchor="middle" x="399.75" y="-392.58" font-family="Times,serif" font-size="14.00">&#45;&#45;devices</text>
</g>
<!-- _2&#45;&gt;_8 -->
<g id="edge51" class="edge">
<title>_2&#45;&gt;_8</title>
<path fill="none" stroke="black" d="M294.09,-1518.62C293.81,-1593.25 296.53,-1874.47 352.5,-1938.38 384.21,-1974.59 442.99,-1981.76 479.44,-1982.43"/>
<polygon fill="black" stroke="black" points="478.97,-1985.93 488.98,-1982.46 478.99,-1978.93 478.97,-1985.93"/>
<text text-anchor="middle" x="399.75" y="-1982.58" font-family="Times,serif" font-size="14.00">*</text>
</g>
<!-- _3&#45;&gt;_0 -->
<g id="edge112" class="edge">
<title>_3&#45;&gt;_0</title>
<path fill="none" stroke="black" d="M494.61,-759.7C452.62,-747.57 339.45,-712.95 252,-668.38 243.43,-664.01 243.2,-659.17 234,-656.38 180.4,-640.15 148.89,-618.11 108,-656.38 61.12,-700.26 62.48,-1168.74 63.65,-1291.22"/>
<polygon fill="black" stroke="black" points="60.16,-1291 63.76,-1300.96 67.16,-1290.93 60.16,-1291"/>
<text text-anchor="middle" x="293.25" y="-708.58" font-family="Times,serif" font-size="14.00">{ls}</text>
</g>
<!-- _4&#45;&gt;_0 -->
<g id="edge109" class="edge">
<title>_4&#45;&gt;_0</title>
<path fill="none" stroke="black" d="M501.26,-499.64C489.94,-484.16 470.06,-460.29 447,-447.38 315.54,-373.78 208.06,-334.74 108,-447.38 79.36,-479.62 66.89,-1143.09 64.45,-1291.22"/>
<polygon fill="black" stroke="black" points="60.94,-1291.05 64.28,-1301.1 67.94,-1291.16 60.94,-1291.05"/>
<text text-anchor="middle" x="293.25" y="-395.58" font-family="Times,serif" font-size="14.00">without&#45;match</text>
</g>
<!-- _4&#45;&gt;_0 -->
<g id="edge110" class="edge">
<title>_4&#45;&gt;_0</title>
<path fill="none" stroke="black" d="M494.09,-512.43C423.94,-504.9 160.14,-480.81 108,-538.38 82.25,-566.81 67.71,-1152.81 64.62,-1291.25"/>
<polygon fill="black" stroke="black" points="61.1,-1291.12 64.38,-1301.19 68.1,-1291.27 61.1,-1291.12"/>
<text text-anchor="middle" x="293.25" y="-505.58" font-family="Times,serif" font-size="14.00">text</text>
</g>
<!-- _4&#45;&gt;_0 -->
<g id="edge111" class="edge">
<title>_4&#45;&gt;_0</title>
<path fill="none" stroke="black" d="M495.79,-506.87C435.3,-478.69 212.86,-386.43 108,-499.38 80.52,-528.98 67.23,-1148.27 64.53,-1291.15"/>
<polygon fill="black" stroke="black" points="61.01,-1290.98 64.32,-1301.05 68.01,-1291.12 61.01,-1290.98"/>
<text text-anchor="middle" x="293.25" y="-456.58" font-family="Times,serif" font-size="14.00">binary</text>
</g>
<!-- _5&#45;&gt;_0 -->
<g id="edge106" class="edge">
<title>_5&#45;&gt;_0</title>
<path fill="none" stroke="black" d="M493.98,-305.16C417.7,-317.5 114.56,-366.91 108,-374.38 77.02,-409.68 66.29,-1135.93 64.34,-1291.29"/>
<polygon fill="black" stroke="black" points="60.83,-1291.21 64.21,-1301.25 67.83,-1291.29 60.83,-1291.21"/>
<text text-anchor="middle" x="293.25" y="-348.58" font-family="Times,serif" font-size="14.00">read</text>
</g>
<!-- _5&#45;&gt;_0 -->
<g id="edge107" class="edge">
<title>_5&#45;&gt;_0</title>
<path fill="none" stroke="black" d="M495.26,-295.19C433.77,-268.75 210.8,-184.15 108,-298.38 73.88,-336.29 65.56,-1129.22 64.22,-1291.51"/>
<polygon fill="black" stroke="black" points="60.71,-1291.06 64.13,-1301.09 67.71,-1291.12 60.71,-1291.06"/>
<text text-anchor="middle" x="293.25" y="-249.58" font-family="Times,serif" font-size="14.00">skip</text>
</g>
<!-- _5&#45;&gt;_0 -->
<g id="edge108" class="edge">
<title>_5&#45;&gt;_0</title>
<path fill="none" stroke="black" d="M499.74,-289.5C487.78,-276.91 467.9,-258.1 447,-247.38 312.89,-178.6 209.83,-127.27 108,-238.38 71.43,-278.29 65.05,-1122.34 64.14,-1291.15"/>
<polygon fill="black" stroke="black" points="60.63,-1290.89 64.08,-1300.91 67.63,-1290.93 60.63,-1290.89"/>
<text text-anchor="middle" x="293.25" y="-197.58" font-family="Times,serif" font-size="14.00">recurse</text>
</g>
<!-- _6&#45;&gt;_1 -->
<g id="edge105" class="edge">
<title>_6&#45;&gt;_1</title>
<path fill="none" stroke="black" d="M528.74,-2066.38C537.97,-2061.37 549.74,-2054.52 559.5,-2047.38 583.43,-2029.88 608.32,-2006.73 624.98,-1990.4"/>
<polygon fill="black" stroke="black" points="626.82,-1993.52 631.46,-1983.99 621.89,-1988.55 626.82,-1993.52"/>
<text text-anchor="middle" x="593.62" y="-2034.58" font-family="Times,serif" font-size="14.00">NUM</text>
</g>
<!-- _7&#45;&gt;_0 -->
<g id="edge103" class="edge">
<title>_7&#45;&gt;_0</title>
<path fill="none" stroke="black" d="M494.12,-116.86C424.08,-115.13 160.68,-112.59 108,-170.38 69.1,-213.05 64.58,-1116.53 64.06,-1291.27"/>
<polygon fill="black" stroke="black" points="60.56,-1291.13 64.03,-1301.14 67.56,-1291.15 60.56,-1291.13"/>
<text text-anchor="middle" x="293.25" y="-128.58" font-family="Times,serif" font-size="14.00">read</text>
</g>
<!-- _7&#45;&gt;_0 -->
<g id="edge104" class="edge">
<title>_7&#45;&gt;_0</title>
<path fill="none" stroke="black" d="M498.56,-105.22C486.33,-94.18 466.8,-78.31 447,-69.38 309.65,-7.42 209.11,46.33 108,-65.38 65.55,-112.29 63.91,-1106.2 63.97,-1290.96"/>
<polygon fill="black" stroke="black" points="60.47,-1290.94 63.98,-1300.94 67.47,-1290.94 60.47,-1290.94"/>
<text text-anchor="middle" x="293.25" y="-23.58" font-family="Times,serif" font-size="14.00">skip</text>
</g>
<!-- _8&#45;&gt;_8 -->
<g id="edge113" class="edge">
<title>_8&#45;&gt;_8</title>
<path fill="none" stroke="black" d="M498.34,-1998.65C494.42,-2010.17 499.06,-2021.38 512.25,-2021.38 521.11,-2021.38 526.11,-2016.32 527.26,-2009.5"/>
<polygon fill="black" stroke="black" points="530.65,-2009.25 526.16,-1999.65 523.68,-2009.95 530.65,-2009.25"/>
<text text-anchor="middle" x="512.25" y="-2024.58" font-family="Times,serif" font-size="14.00">{ls}</text>
</g>
</g>
</svg>
