<svg class="railroad" viewBox="0 0 714 1937" xmlns="http://www.w3.org/2000/svg" xmlns:xlink="http://www.w3.org/1999/xlink">
<style type="text/css">

    svg.railroad {
        background-color: hsl(30, 20%, 95%);
        background-size: 15px 15px;
        background-image: linear-gradient(to right, rgba(30, 30, 30, .05) 1px, transparent 1px),
                          linear-gradient(to bottom, rgba(30, 30, 30, .05) 1px, transparent 1px);
    }

    svg.railroad path {
        stroke-width: 3px;
        stroke: black;
        fill: transparent;
    }

    svg.railroad .debug {
        stroke-width: 1px;
        stroke: red;
    }

    svg.railroad text {
        font: 14px monospace;
        text-anchor: middle;
    }

    svg.railroad .nonterminal text {
        font-weight: bold;
    }

    svg.railroad text.comment {
        font: italic 12px monospace;
    }

    svg.railroad rect {
        stroke-width: 3px;
        stroke: black;
        fill:hsl(-290, 70%, 90%);
    }

    svg.railroad g.labeledbox &gt; rect {
        stroke-width: 1px;
        stroke: grey;
        stroke-dasharray: 5px;
        fill:rgba(90, 90, 150, .1);
    }</style>
<g class="sequence">
<path d=" M 10 24 v 20 m 10 -20 v 20 m -10 -10 h 20"/>
<g class="sequence">
<g class="repeat">
<path d=" M 40 34 h 12 m 410 0 h 12 m -12 0 a 12 12 0 0 1 12 12 v 1869 m 0 -931 l -5 -5 m 10 0 l -5 5 m 0 931 a 12 12 0 0 1 -12 12 m 0 0 h -410 m 208 0 l 5 -5 m 0 10 l -5 -5 m -208 0 a 12 12 0 0 1 -12 -12 v -1869 m 0 937 l -5 5 m 10 0 l -5 -5 m 0 -937 a 12 12 0 0 1 12 -12"/>
<g/>
<g class="optional">
<path d=" M 52 34 h 24 m -24 0 a 12 12 0 0 0 12 -12 v 0 a 12 12 0 0 1 12 -12 h 362 m -178 0 l -5 -5 m 0 10 l 5 -5 m 178 0 a 12 12 0 0 1 12 12 v 0 a 12 12 0 0 0 12 12 h -24"/>
<g class="choice">
<path d=" M 76 34 h 24 m 156 0 h 182 m -88 0 l -5 -5 m 0 10 l 5 -5 m 88 0"/>
<g class="terminal">
<rect height="22" rx="10" ry="10" width="156" x="100" y="23"/>
<text x="178" y="39">
--extended-regexp</text>
</g>
<path d=" M 76 34 a 12 12 0 0 1 12 12 v 9 m 338 0 v -9 a 12 12 0 0 1 12 -12"/>
<path d=" M 88 55 v 33 m 338 0 v -33"/>
<path d=" M 88 88 v 33 m 338 0 v -33"/>
<path d=" M 88 121 v 33 m 338 0 v -33"/>
<path d=" M 88 154 v 33 m 338 0 v -33"/>
<path d=" M 88 187 v 33 m 338 0 v -33"/>
<path d=" M 88 220 v 33 m 338 0 v -33"/>
<path d=" M 88 253 v 33 m 338 0 v -33"/>
<path d=" M 88 286 v 33 m 338 0 v -33"/>
<path d=" M 88 319 v 33 m 338 0 v -33"/>
<path d=" M 88 352 v 33 m 338 0 v -33"/>
<path d=" M 88 385 v 33 m 338 0 v -33"/>
<path d=" M 88 418 v 33 m 338 0 v -33"/>
<path d=" M 88 451 v 33 m 338 0 v -33"/>
<path d=" M 88 484 v 33 m 338 0 v -33"/>
<path d=" M 88 517 v 33 m 338 0 v -33"/>
<path d=" M 88 550 v 33 m 338 0 v -33"/>
<path d=" M 88 583 v 33 m 338 0 v -33"/>
<path d=" M 88 616 v 33 m 338 0 v -33"/>
<path d=" M 88 649 v 33 m 338 0 v -33"/>
<path d=" M 88 682 v 33 m 338 0 v -33"/>
<path d=" M 88 715 v 33 m 338 0 v -33"/>
<path d=" M 88 748 v 33 m 338 0 v -33"/>
<path d=" M 88 781 v 33 m 338 0 v -33"/>
<path d=" M 88 814 v 33 m 338 0 v -33"/>
<path d=" M 88 847 v 99 m 0 -46 l -5 -5 m 10 0 l -5 5 m 0 46 m 338 0 v -99 m 0 52 l -5 5 m 10 0 l -5 -5 m 0 -52"/>
<path d=" M 88 946 v 33 m 338 0 v -33"/>
<path d=" M 88 979 v 99 m 0 -46 l -5 -5 m 10 0 l -5 5 m 0 46 m 338 0 v -99 m 0 52 l -5 5 m 10 0 l -5 -5 m 0 -52"/>
<path d=" M 88 1078 v 66 m 0 -30 l -5 -5 m 10 0 l -5 5 m 0 30 m 338 0 v -66 m 0 36 l -5 5 m 10 0 l -5 -5 m 0 -36"/>
<path d=" M 88 1144 v 33 m 338 0 v -33"/>
<path d=" M 88 1177 v 33 m 338 0 v -33"/>
<path d=" M 88 1210 v 33 m 338 0 v -33"/>
<path d=" M 88 1243 v 33 m 338 0 v -33"/>
<path d=" M 88 1276 v 33 m 338 0 v -33"/>
<path d=" M 88 1309 v 33 m 338 0 v -33"/>
<path d=" M 88 1342 v 33 m 338 0 v -33"/>
<path d=" M 88 1375 v 33 m 338 0 v -33"/>
<path d=" M 88 1408 v 33 m 338 0 v -33"/>
<path d=" M 88 1441 v 33 m 338 0 v -33"/>
<path d=" M 88 1474 v 33 m 338 0 v -33"/>
<path d=" M 88 1507 v 33 m 338 0 v -33"/>
<path d=" M 88 1540 v 33 m 338 0 v -33"/>
<path d=" M 88 1573 v 33 m 338 0 v -33"/>
<path d=" M 88 1606 v 33 m 338 0 v -33"/>
<path d=" M 88 1639 v 33 m 338 0 v -33"/>
<path d=" M 88 1684 v 99 m 0 -46 l -5 -5 m 10 0 l -5 5 m 0 46 m 338 0 v -99 m 0 52 l -5 5 m 10 0 l -5 -5 m 0 -52"/>
<path d=" M 88 1795 v 99 m 0 -46 l -5 -5 m 10 0 l -5 5 m 0 46 m 338 0 v -99 m 0 52 l -5 5 m 10 0 l -5 -5 m 0 -52"/>
<path d=" M 88 55 v 0 a 12 12 0 0 0 12 12 m 140 0 h 174 m -84 0 l -5 -5 m 0 10 l 5 -5 m 84 0 a 12 12 0 0 0 12 -12 v 0"/>
<g class="terminal">
<rect height="22" rx="10" ry="10" width="140" x="100" y="56"/>
<text x="170" y="72">
--fixed-strings</text>
</g>
<path d=" M 88 88 v 0 a 12 12 0 0 0 12 12 m 132 0 h 182 m -88 0 l -5 -5 m 0 10 l 5 -5 m 88 0 a 12 12 0 0 0 12 -12 v 0"/>
<g class="terminal">
<rect height="22" rx="10" ry="10" width="132" x="100" y="89"/>
<text x="166" y="105">
--basic-regexp</text>
</g>
<path d=" M 88 121 v 0 a 12 12 0 0 0 12 12 m 124 0 h 190 m -92 0 l -5 -5 m 0 10 l 5 -5 m 92 0 a 12 12 0 0 0 12 -12 v 0"/>
<g class="terminal">
<rect height="22" rx="10" ry="10" width="124" x="100" y="122"/>
<text x="162" y="138">
--perl-regexp</text>
</g>
<path d=" M 88 154 v 0 a 12 12 0 0 0 12 12 m 178 0 h 136 m -65 0 l -5 -5 m 0 10 l 5 -5 m 65 0 a 12 12 0 0 0 12 -12 v 0"/>
<g class="sequence">
<g class="terminal">
<rect height="22" rx="10" ry="10" width="84" x="100" y="155"/>
<text x="142" y="171">
--regexp</text>
</g>
<g class="nonterminal">
<rect height="22" width="84" x="194" y="155"/>
<text x="236" y="171">
PATTERNS</text>
</g>
<path d=" M 184 166 h 10"/>
</g>
<path d=" M 88 187 v 0 a 12 12 0 0 0 12 12 m 102 0 h 212 m -103 0 l -5 -5 m 0 10 l 5 -5 m 103 0 a 12 12 0 0 0 12 -12 v 0"/>
<g class="sequence">
<g class="terminal">
<rect height="22" rx="10" ry="10" width="68" x="100" y="188"/>
<text x="134" y="204">
--file</text>
</g>
<text class="comment" x="190" y="204">
ls</text>
<path d=" M 168 199 h 10"/>
</g>
<path d=" M 88 220 v 0 a 12 12 0 0 0 12 12 m 124 0 h 190 m -92 0 l -5 -5 m 0 10 l 5 -5 m 92 0 a 12 12 0 0 0 12 -12 v 0"/>
<g class="terminal">
<rect height="22" rx="10" ry="10" width="124" x="100" y="221"/>
<text x="162" y="237">
--ignore-case</text>
</g>
<path d=" M 88 253 v 0 a 12 12 0 0 0 12 12 m 148 0 h 166 m -80 0 l -5 -5 m 0 10 l 5 -5 m 80 0 a 12 12 0 0 0 12 -12 v 0"/>
<g class="terminal">
<rect height="22" rx="10" ry="10" width="148" x="100" y="254"/>
<text x="174" y="270">
--no-ignore-case</text>
</g>
<path d=" M 88 286 v 0 a 12 12 0 0 0 12 12 m 124 0 h 190 m -92 0 l -5 -5 m 0 10 l 5 -5 m 92 0 a 12 12 0 0 0 12 -12 v 0"/>
<g class="terminal">
<rect height="22" rx="10" ry="10" width="124" x="100" y="287"/>
<text x="162" y="303">
--word-regexp</text>
</g>
<path d=" M 88 319 v 0 a 12 12 0 0 0 12 12 m 124 0 h 190 m -92 0 l -5 -5 m 0 10 l 5 -5 m 92 0 a 12 12 0 0 0 12 -12 v 0"/>
<g class="terminal">
<rect height="22" rx="10" ry="10" width="124" x="100" y="320"/>
<text x="162" y="336">
--line-regexp</text>
</g>
<path d=" M 88 352 v 0 a 12 12 0 0 0 12 12 m 108 0 h 206 m -100 0 l -5 -5 m 0 10 l 5 -5 m 100 0 a 12 12 0 0 0 12 -12 v 0"/>
<g class="terminal">
<rect height="22" rx="10" ry="10" width="108" x="100" y="353"/>
<text x="154" y="369">
--null-data</text>
</g>
<path d=" M 88 385 v 0 a 12 12 0 0 0 12 12 m 124 0 h 190 m -92 0 l -5 -5 m 0 10 l 5 -5 m 92 0 a 12 12 0 0 0 12 -12 v 0"/>
<g class="terminal">
<rect height="22" rx="10" ry="10" width="124" x="100" y="386"/>
<text x="162" y="402">
--no-messages</text>
</g>
<path d=" M 88 418 v 0 a 12 12 0 0 0 12 12 m 132 0 h 182 m -88 0 l -5 -5 m 0 10 l 5 -5 m 88 0 a 12 12 0 0 0 12 -12 v 0"/>
<g class="terminal">
<rect height="22" rx="10" ry="10" width="132" x="100" y="419"/>
<text x="166" y="435">
--invert-match</text>
</g>
<path d=" M 88 451 v 0 a 12 12 0 0 0 12 12 m 92 0 h 222 m -108 0 l -5 -5 m 0 10 l 5 -5 m 108 0 a 12 12 0 0 0 12 -12 v 0"/>
<g class="terminal">
<rect height="22" rx="10" ry="10" width="92" x="100" y="452"/>
<text x="146" y="468">
--version</text>
</g>
<path d=" M 88 484 v 0 a 12 12 0 0 0 12 12 m 68 0 h 246 m -120 0 l -5 -5 m 0 10 l 5 -5 m 120 0 a 12 12 0 0 0 12 -12 v 0"/>
<g class="terminal">
<rect height="22" rx="10" ry="10" width="68" x="100" y="485"/>
<text x="134" y="501">
--help</text>
</g>
<path d=" M 88 517 v 0 a 12 12 0 0 0 12 12 m 162 0 h 152 m -73 0 l -5 -5 m 0 10 l 5 -5 m 73 0 a 12 12 0 0 0 12 -12 v 0"/>
<g class="sequence">
<g class="terminal">
<rect height="22" rx="10" ry="10" width="108" x="100" y="518"/>
<text x="154" y="534">
--max-count</text>
</g>
<g class="nonterminal">
<rect height="22" width="44" x="218" y="518"/>
<text x="240" y="534">
NUM</text>
</g>
<path d=" M 208 529 h 10"/>
</g>
<path d=" M 88 550 v 0 a 12 12 0 0 0 12 12 m 124 0 h 190 m -92 0 l -5 -5 m 0 10 l 5 -5 m 92 0 a 12 12 0 0 0 12 -12 v 0"/>
<g class="terminal">
<rect height="22" rx="10" ry="10" width="124" x="100" y="551"/>
<text x="162" y="567">
--byte-offset</text>
</g>
<path d=" M 88 583 v 0 a 12 12 0 0 0 12 12 m 124 0 h 190 m -92 0 l -5 -5 m 0 10 l 5 -5 m 92 0 a 12 12 0 0 0 12 -12 v 0"/>
<g class="terminal">
<rect height="22" rx="10" ry="10" width="124" x="100" y="584"/>
<text x="162" y="600">
--line-number</text>
</g>
<path d=" M 88 616 v 0 a 12 12 0 0 0 12 12 m 140 0 h 174 m -84 0 l -5 -5 m 0 10 l 5 -5 m 84 0 a 12 12 0 0 0 12 -12 v 0"/>
<g class="terminal">
<rect height="22" rx="10" ry="10" width="140" x="100" y="617"/>
<text x="170" y="633">
--line-buffered</text>
</g>
<path d=" M 88 649 v 0 a 12 12 0 0 0 12 12 m 140 0 h 174 m -84 0 l -5 -5 m 0 10 l 5 -5 m 84 0 a 12 12 0 0 0 12 -12 v 0"/>
<g class="terminal">
<rect height="22" rx="10" ry="10" width="140" x="100" y="650"/>
<text x="170" y="666">
--with-filename</text>
</g>
<path d=" M 88 682 v 0 a 12 12 0 0 0 12 12 m 124 0 h 190 m -92 0 l -5 -5 m 0 10 l 5 -5 m 92 0 a 12 12 0 0 0 12 -12 v 0"/>
<g class="terminal">
<rect height="22" rx="10" ry="10" width="124" x="100" y="683"/>
<text x="162" y="699">
--no-filename</text>
</g>
<path d=" M 88 715 v 0 a 12 12 0 0 0 12 12 m 146 0 h 168 m -81 0 l -5 -5 m 0 10 l 5 -5 m 81 0 a 12 12 0 0 0 12 -12 v 0"/>
<g class="sequence">
<g class="terminal">
<rect height="22" rx="10" ry="10" width="76" x="100" y="716"/>
<text x="138" y="732">
--label</text>
</g>
<g class="nonterminal">
<rect height="22" width="60" x="186" y="716"/>
<text x="216" y="732">
LABEL</text>
</g>
<path d=" M 176 727 h 10"/>
</g>
<path d=" M 88 748 v 0 a 12 12 0 0 0 12 12 m 140 0 h 174 m -84 0 l -5 -5 m 0 10 l 5 -5 m 84 0 a 12 12 0 0 0 12 -12 v 0"/>
<g class="terminal">
<rect height="22" rx="10" ry="10" width="140" x="100" y="749"/>
<text x="170" y="765">
--only-matching</text>
</g>
<path d=" M 88 781 v 0 a 12 12 0 0 0 12 12 m 76 0 h 238 m -116 0 l -5 -5 m 0 10 l 5 -5 m 116 0 a 12 12 0 0 0 12 -12 v 0"/>
<g class="terminal">
<rect height="22" rx="10" ry="10" width="76" x="100" y="782"/>
<text x="138" y="798">
--quiet</text>
</g>
<path d=" M 88 814 v 0 a 12 12 0 0 0 12 12 m 84 0 h 230 m -112 0 l -5 -5 m 0 10 l 5 -5 m 112 0 a 12 12 0 0 0 12 -12 v 0"/>
<g class="terminal">
<rect height="22" rx="10" ry="10" width="84" x="100" y="815"/>
<text x="142" y="831">
--silent</text>
</g>
<path d=" M 88 847 v 0 a 12 12 0 0 0 12 12 m 314 0 h 0 a 12 12 0 0 0 12 -12 v 0"/>
<g class="sequence">
<g class="terminal">
<rect height="22" rx="10" ry="10" width="132" x="100" y="848"/>
<text x="166" y="864">
--binary-files</text>
</g>
<g class="choice">
<path d=" M 242 859 h 24 m 68 0 h 80 m -37 0 l -5 -5 m 0 10 l 5 -5 m 37 0"/>
<g class="terminal">
<rect height="22" rx="10" ry="10" width="68" x="266" y="848"/>
<text x="300" y="864">
binary</text>
</g>
<path d=" M 242 859 a 12 12 0 0 1 12 12 v 9 m 148 0 v -9 a 12 12 0 0 1 12 -12"/>
<path d=" M 254 880 v 33 m 148 0 v -33"/>
<path d=" M 254 880 v 0 a 12 12 0 0 0 12 12 m 52 0 h 72 m -33 0 l -5 -5 m 0 10 l 5 -5 m 33 0 a 12 12 0 0 0 12 -12 v 0"/>
<g class="terminal">
<rect height="22" rx="10" ry="10" width="52" x="266" y="881"/>
<text x="292" y="897">
text</text>
</g>
<path d=" M 254 913 v 0 a 12 12 0 0 0 12 12 m 124 0 h 0 a 12 12 0 0 0 12 -12 v 0"/>
<g class="terminal">
<rect height="22" rx="10" ry="10" width="124" x="266" y="914"/>
<text x="328" y="930">
without-match</text>
</g>
</g>
<path d=" M 232 859 h 10"/>
</g>
<path d=" M 88 946 v 0 a 12 12 0 0 0 12 12 m 68 0 h 246 m -120 0 l -5 -5 m 0 10 l 5 -5 m 120 0 a 12 12 0 0 0 12 -12 v 0"/>
<g class="terminal">
<rect height="22" rx="10" ry="10" width="68" x="100" y="947"/>
<text x="134" y="963">
--text</text>
</g>
<path d=" M 88 979 v 0 a 12 12 0 0 0 12 12 m 258 0 h 56 m -25 0 l -5 -5 m 0 10 l 5 -5 m 25 0 a 12 12 0 0 0 12 -12 v 0"/>
<g class="sequence">
<g class="terminal">
<rect height="22" rx="10" ry="10" width="124" x="100" y="980"/>
<text x="162" y="996">
--directories</text>
</g>
<g class="choice">
<path d=" M 234 991 h 24 m 52 0 h 48"/>
<g class="terminal">
<rect height="22" rx="10" ry="10" width="52" x="258" y="980"/>
<text x="284" y="996">
read</text>
</g>
<path d=" M 234 991 a 12 12 0 0 1 12 12 v 9 m 100 0 v -9 a 12 12 0 0 1 12 -12"/>
<path d=" M 246 1012 v 33 m 100 0 v -33"/>
<path d=" M 246 1012 v 0 a 12 12 0 0 0 12 12 m 76 0 h 0 a 12 12 0 0 0 12 -12 v 0"/>
<g class="terminal">
<rect height="22" rx="10" ry="10" width="76" x="258" y="1013"/>
<text x="296" y="1029">
recurse</text>
</g>
<path d=" M 246 1045 v 0 a 12 12 0 0 0 12 12 m 52 0 h 24 a 12 12 0 0 0 12 -12 v 0"/>
<g class="terminal">
<rect height="22" rx="10" ry="10" width="52" x="258" y="1046"/>
<text x="284" y="1062">
skip</text>
</g>
</g>
<path d=" M 224 991 h 10"/>
</g>
<path d=" M 88 1078 v 0 a 12 12 0 0 0 12 12 m 202 0 h 112 m -53 0 l -5 -5 m 0 10 l 5 -5 m 53 0 a 12 12 0 0 0 12 -12 v 0"/>
<g class="sequence">
<g class="terminal">
<rect height="22" rx="10" ry="10" width="92" x="100" y="1079"/>
<text x="146" y="1095">
--devices</text>
</g>
<g class="choice">
<path d=" M 202 1090 h 24 m 52 0 h 24"/>
<g class="terminal">
<rect height="22" rx="10" ry="10" width="52" x="226" y="1079"/>
<text x="252" y="1095">
read</text>
</g>
<path d=" M 202 1090 a 12 12 0 0 1 12 12 v 9 m 76 0 v -9 a 12 12 0 0 1 12 -12"/>
<path d=" M 214 1111 v 0 a 12 12 0 0 0 12 12 m 52 0 h 0 a 12 12 0 0 0 12 -12 v 0"/>
<g class="terminal">
<rect height="22" rx="10" ry="10" width="52" x="226" y="1112"/>
<text x="252" y="1128">
skip</text>
</g>
</g>
<path d=" M 192 1090 h 10"/>
</g>
<path d=" M 88 1144 v 0 a 12 12 0 0 0 12 12 m 108 0 h 206 m -100 0 l -5 -5 m 0 10 l 5 -5 m 100 0 a 12 12 0 0 0 12 -12 v 0"/>
<g class="terminal">
<rect height="22" rx="10" ry="10" width="108" x="100" y="1145"/>
<text x="154" y="1161">
--recursive</text>
</g>
<path d=" M 88 1177 v 0 a 12 12 0 0 0 12 12 m 212 0 h 102 m -48 0 l -5 -5 m 0 10 l 5 -5 m 48 0 a 12 12 0 0 0 12 -12 v 0"/>
<g class="terminal">
<rect height="22" rx="10" ry="10" width="212" x="100" y="1178"/>
<text x="206" y="1194">
--dereference-recursive</text>
</g>
<path d=" M 88 1210 v 0 a 12 12 0 0 0 12 12 m 154 0 h 160 m -77 0 l -5 -5 m 0 10 l 5 -5 m 77 0 a 12 12 0 0 0 12 -12 v 0"/>
<g class="sequence">
<g class="terminal">
<rect height="22" rx="10" ry="10" width="92" x="100" y="1211"/>
<text x="146" y="1227">
--include</text>
</g>
<g class="nonterminal">
<rect height="22" width="52" x="202" y="1211"/>
<text x="228" y="1227">
GLOB</text>
</g>
<path d=" M 192 1222 h 10"/>
</g>
<path d=" M 88 1243 v 0 a 12 12 0 0 0 12 12 m 154 0 h 160 m -77 0 l -5 -5 m 0 10 l 5 -5 m 77 0 a 12 12 0 0 0 12 -12 v 0"/>
<g class="sequence">
<g class="terminal">
<rect height="22" rx="10" ry="10" width="92" x="100" y="1244"/>
<text x="146" y="1260">
--exclude</text>
</g>
<g class="nonterminal">
<rect height="22" width="52" x="202" y="1244"/>
<text x="228" y="1260">
GLOB</text>
</g>
<path d=" M 192 1255 h 10"/>
</g>
<path d=" M 88 1276 v 0 a 12 12 0 0 0 12 12 m 166 0 h 148 m -71 0 l -5 -5 m 0 10 l 5 -5 m 71 0 a 12 12 0 0 0 12 -12 v 0"/>
<g class="sequence">
<g class="terminal">
<rect height="22" rx="10" ry="10" width="132" x="100" y="1277"/>
<text x="166" y="1293">
--exclude-from</text>
</g>
<text class="comment" x="254" y="1293">
ls</text>
<path d=" M 232 1288 h 10"/>
</g>
<path d=" M 88 1309 v 0 a 12 12 0 0 0 12 12 m 186 0 h 128 m -61 0 l -5 -5 m 0 10 l 5 -5 m 61 0 a 12 12 0 0 0 12 -12 v 0"/>
<g class="sequence">
<g class="terminal">
<rect height="22" rx="10" ry="10" width="124" x="100" y="1310"/>
<text x="162" y="1326">
--exclude-dir</text>
</g>
<g class="nonterminal">
<rect height="22" width="52" x="234" y="1310"/>
<text x="260" y="1326">
GLOB</text>
</g>
<path d=" M 224 1321 h 10"/>
</g>
<path d=" M 88 1342 v 0 a 12 12 0 0 0 12 12 m 196 0 h 118 m -56 0 l -5 -5 m 0 10 l 5 -5 m 56 0 a 12 12 0 0 0 12 -12 v 0"/>
<g class="terminal">
<rect height="22" rx="10" ry="10" width="196" x="100" y="1343"/>
<text x="198" y="1359">
--files-without-match</text>
</g>
<path d=" M 88 1375 v 0 a 12 12 0 0 0 12 12 m 188 0 h 126 m -60 0 l -5 -5 m 0 10 l 5 -5 m 60 0 a 12 12 0 0 0 12 -12 v 0"/>
<g class="terminal">
<rect height="22" rx="10" ry="10" width="188" x="100" y="1376"/>
<text x="194" y="1392">
--files-with-matches</text>
</g>
<path d=" M 88 1408 v 0 a 12 12 0 0 0 12 12 m 76 0 h 238 m -116 0 l -5 -5 m 0 10 l 5 -5 m 116 0 a 12 12 0 0 0 12 -12 v 0"/>
<g class="terminal">
<rect height="22" rx="10" ry="10" width="76" x="100" y="1409"/>
<text x="138" y="1425">
--count</text>
</g>
<path d=" M 88 1441 v 0 a 12 12 0 0 0 12 12 m 124 0 h 190 m -92 0 l -5 -5 m 0 10 l 5 -5 m 92 0 a 12 12 0 0 0 12 -12 v 0"/>
<g class="terminal">
<rect height="22" rx="10" ry="10" width="124" x="100" y="1442"/>
<text x="162" y="1458">
--initial-tab</text>
</g>
<path d=" M 88 1474 v 0 a 12 12 0 0 0 12 12 m 68 0 h 246 m -120 0 l -5 -5 m 0 10 l 5 -5 m 120 0 a 12 12 0 0 0 12 -12 v 0"/>
<g class="terminal">
<rect height="22" rx="10" ry="10" width="68" x="100" y="1475"/>
<text x="134" y="1491">
--null</text>
</g>
<path d=" M 88 1507 v 0 a 12 12 0 0 0 12 12 m 202 0 h 112 m -53 0 l -5 -5 m 0 10 l 5 -5 m 53 0 a 12 12 0 0 0 12 -12 v 0"/>
<g class="sequence">
<g class="terminal">
<rect height="22" rx="10" ry="10" width="148" x="100" y="1508"/>
<text x="174" y="1524">
--before-context</text>
</g>
<g class="nonterminal">
<rect height="22" width="44" x="258" y="1508"/>
<text x="280" y="1524">
NUM</text>
</g>
<path d=" M 248 1519 h 10"/>
</g>
<path d=" M 88 1540 v 0 a 12 12 0 0 0 12 12 m 194 0 h 120 m -57 0 l -5 -5 m 0 10 l 5 -5 m 57 0 a 12 12 0 0 0 12 -12 v 0"/>
<g class="sequence">
<g class="terminal">
<rect height="22" rx="10" ry="10" width="140" x="100" y="1541"/>
<text x="170" y="1557">
--after-context</text>
</g>
<g class="nonterminal">
<rect height="22" width="44" x="250" y="1541"/>
<text x="272" y="1557">
NUM</text>
</g>
<path d=" M 240 1552 h 10"/>
</g>
<path d=" M 88 1573 v 0 a 12 12 0 0 0 12 12 m 200 0 h 114 m -54 0 l -5 -5 m 0 10 l 5 -5 m 54 0 a 12 12 0 0 0 12 -12 v 0"/>
<g class="sequence">
<g class="terminal">
<rect height="22" rx="10" ry="10" width="92" x="100" y="1574"/>
<text x="146" y="1590">
--context</text>
</g>
<g class="sequence">
<g class="terminal">
<rect height="22" rx="10" ry="10" width="44" x="202" y="1574"/>
<text x="224" y="1590">
NUM</text>
</g>
<g class="nonterminal">
<rect height="22" width="44" x="256" y="1574"/>
<text x="278" y="1590">
NUM</text>
</g>
<path d=" M 246 1585 h 10"/>
</g>
<path d=" M 192 1585 h 10"/>
</g>
<path d=" M 88 1606 v 0 a 12 12 0 0 0 12 12 m 210 0 h 104 m -49 0 l -5 -5 m 0 10 l 5 -5 m 49 0 a 12 12 0 0 0 12 -12 v 0"/>
<g class="sequence">
<g class="terminal">
<rect height="22" rx="10" ry="10" width="156" x="100" y="1607"/>
<text x="178" y="1623">
--group-separator</text>
</g>
<g class="nonterminal">
<rect height="22" width="44" x="266" y="1607"/>
<text x="288" y="1623">
SEP</text>
</g>
<path d=" M 256 1618 h 10"/>
</g>
<path d=" M 88 1639 v 0 a 12 12 0 0 0 12 12 m 188 0 h 126 m -60 0 l -5 -5 m 0 10 l 5 -5 m 60 0 a 12 12 0 0 0 12 -12 v 0"/>
<g class="terminal">
<rect height="22" rx="10" ry="10" width="188" x="100" y="1640"/>
<text x="194" y="1656">
--no-group-separator</text>
</g>
<path d=" M 88 1672 v 12 a 12 12 0 0 0 12 12 m 250 0 h 64 m -29 0 l -5 -5 m 0 10 l 5 -5 m 29 0 a 12 12 0 0 0 12 -12 v -12"/>
<g class="sequence">
<g class="terminal">
<rect height="22" rx="10" ry="10" width="76" x="100" y="1685"/>
<text x="138" y="1701">
--color</text>
</g>
<g class="optional">
<path d=" M 186 1696 h 24 m -24 0 a 12 12 0 0 0 12 -12 v 0 a 12 12 0 0 1 12 -12 h 116 m -55 0 l -5 -5 m 0 10 l 5 -5 m 55 0 a 12 12 0 0 1 12 12 v 0 a 12 12 0 0 0 12 12 h -24"/>
<g class="choice">
<path d=" M 210 1696 h 24 m 68 0 h 24"/>
<g class="terminal">
<rect height="22" rx="10" ry="10" width="68" x="234" y="1685"/>
<text x="268" y="1701">
always</text>
</g>
<path d=" M 210 1696 a 12 12 0 0 1 12 12 v 9 m 92 0 v -9 a 12 12 0 0 1 12 -12"/>
<path d=" M 222 1717 v 33 m 92 0 v -33"/>
<path d=" M 222 1717 v 0 a 12 12 0 0 0 12 12 m 60 0 h 8 a 12 12 0 0 0 12 -12 v 0"/>
<g class="terminal">
<rect height="22" rx="10" ry="10" width="60" x="234" y="1718"/>
<text x="264" y="1734">
never</text>
</g>
<path d=" M 222 1750 v 0 a 12 12 0 0 0 12 12 m 52 0 h 16 a 12 12 0 0 0 12 -12 v 0"/>
<g class="terminal">
<rect height="22" rx="10" ry="10" width="52" x="234" y="1751"/>
<text x="260" y="1767">
auto</text>
</g>
</g>
</g>
<path d=" M 176 1696 h 10"/>
</g>
<path d=" M 88 1783 v 12 a 12 12 0 0 0 12 12 m 258 0 h 56 m -25 0 l -5 -5 m 0 10 l 5 -5 m 25 0 a 12 12 0 0 0 12 -12 v -12"/>
<g class="sequence">
<g class="terminal">
<rect height="22" rx="10" ry="10" width="84" x="100" y="1796"/>
<text x="142" y="1812">
--colour</text>
</g>
<g class="optional">
<path d=" M 194 1807 h 24 m -24 0 a 12 12 0 0 0 12 -12 v 0 a 12 12 0 0 1 12 -12 h 116 m -55 0 l -5 -5 m 0 10 l 5 -5 m 55 0 a 12 12 0 0 1 12 12 v 0 a 12 12 0 0 0 12 12 h -24"/>
<g class="choice">
<path d=" M 218 1807 h 24 m 68 0 h 24"/>
<g class="terminal">
<rect height="22" rx="10" ry="10" width="68" x="242" y="1796"/>
<text x="276" y="1812">
always</text>
</g>
<path d=" M 218 1807 a 12 12 0 0 1 12 12 v 9 m 92 0 v -9 a 12 12 0 0 1 12 -12"/>
<path d=" M 230 1828 v 33 m 92 0 v -33"/>
<path d=" M 230 1828 v 0 a 12 12 0 0 0 12 12 m 60 0 h 8 a 12 12 0 0 0 12 -12 v 0"/>
<g class="terminal">
<rect height="22" rx="10" ry="10" width="60" x="242" y="1829"/>
<text x="272" y="1845">
never</text>
</g>
<path d=" M 230 1861 v 0 a 12 12 0 0 0 12 12 m 52 0 h 16 a 12 12 0 0 0 12 -12 v 0"/>
<g class="terminal">
<rect height="22" rx="10" ry="10" width="52" x="242" y="1862"/>
<text x="268" y="1878">
auto</text>
</g>
</g>
</g>
<path d=" M 184 1807 h 10"/>
</g>
<path d=" M 88 1894 v 0 a 12 12 0 0 0 12 12 m 84 0 h 230 m -112 0 l -5 -5 m 0 10 l 5 -5 m 112 0 a 12 12 0 0 0 12 -12 v 0"/>
<g class="terminal">
<rect height="22" rx="10" ry="10" width="84" x="100" y="1895"/>
<text x="142" y="1911">
--binary</text>
</g>
</g>
</g>
</g>
<g class="sequence">
<g class="nonterminal">
<rect height="22" width="84" x="484" y="23"/>
<text x="526" y="39">
PATTERNS</text>
</g>
<g class="repeat">
<path d=" M 578 34 h 12 m 72 0 h 12 m -12 0 a 12 12 0 0 1 12 12 v 0 a 12 12 0 0 1 -12 12 m 0 0 h -72 m 39 0 l 5 -5 m 0 10 l -5 -5 m -39 0 a 12 12 0 0 1 -12 -12 v 0 a 12 12 0 0 1 12 -12"/>
<g/>
<g class="optional">
<path d=" M 590 34 h 24 m -24 0 a 12 12 0 0 0 12 -12 v 0 a 12 12 0 0 1 12 -12 h 24 a 12 12 0 0 1 12 12 v 0 a 12 12 0 0 0 12 12 h -24"/>
<text class="comment" x="626" y="39">
ls</text>
</g>
</g>
<path d=" M 568 34 h 10"/>
</g>
<path d=" M 474 34 h 10"/>
</g>
<path d=" M 684 34 h 20 m -10 -10 v 20 m 10 -20 v 20"/>
<path d=" M 30 34 h 10"/>
<path d=" M 674 34 h 10"/>
</g>
</svg>
